<mxfile host="app.diagrams.net" agent="Mozilla/5.0 (Windows NT 10.0; Win64; x64) AppleWebKit/537.36 (KHTML, like Gecko) Chrome/141.0.0.0 Safari/537.36" version="28.2.8">
  <diagram name="Page-1" id="MRbzi1PPiMcw3mt_PFbT">
    <mxGraphModel dx="872" dy="507" grid="1" gridSize="10" guides="1" tooltips="1" connect="1" arrows="1" fold="1" page="1" pageScale="1" pageWidth="827" pageHeight="1169" math="0" shadow="0">
      <root>
        <mxCell id="0" />
        <mxCell id="1" parent="0" />
        <mxCell id="nBgyzqws7G7qOZCPQtSL-1" value="" style="rounded=0;whiteSpace=wrap;html=1;fillColor=#dae8fc;strokeColor=#6c8ebf;" vertex="1" parent="1">
          <mxGeometry x="100" y="40" width="540" height="90" as="geometry" />
        </mxCell>
        <mxCell id="nBgyzqws7G7qOZCPQtSL-2" value="" style="rounded=0;whiteSpace=wrap;html=1;fillColor=#d5e8d4;strokeColor=#82b366;" vertex="1" parent="1">
          <mxGeometry x="100" y="130" width="540" height="90" as="geometry" />
        </mxCell>
        <mxCell id="nBgyzqws7G7qOZCPQtSL-3" value="" style="rounded=0;whiteSpace=wrap;html=1;fillColor=#e1d5e7;strokeColor=#9673a6;" vertex="1" parent="1">
          <mxGeometry x="100" y="221" width="540" height="90" as="geometry" />
        </mxCell>
        <mxCell id="nBgyzqws7G7qOZCPQtSL-4" value="" style="rounded=0;whiteSpace=wrap;html=1;fillColor=#ffe6cc;strokeColor=#d79b00;" vertex="1" parent="1">
          <mxGeometry x="100" y="312" width="540" height="90" as="geometry" />
        </mxCell>
        <mxCell id="nBgyzqws7G7qOZCPQtSL-5" value="" style="rounded=0;whiteSpace=wrap;html=1;fillColor=#f8cecc;strokeColor=#b85450;" vertex="1" parent="1">
          <mxGeometry x="100" y="402" width="540" height="90" as="geometry" />
        </mxCell>
        <mxCell id="nBgyzqws7G7qOZCPQtSL-19" value="" style="rounded=0;whiteSpace=wrap;html=1;fillColor=#f5f5f5;strokeColor=#666666;fontColor=#333333;" vertex="1" parent="1">
          <mxGeometry x="240" y="51" width="326" height="60" as="geometry" />
        </mxCell>
        <mxCell id="nBgyzqws7G7qOZCPQtSL-24" value="" style="ellipse;whiteSpace=wrap;html=1;aspect=fixed;" vertex="1" parent="1">
          <mxGeometry x="283" y="55" width="10" height="10" as="geometry" />
        </mxCell>
        <mxCell id="nBgyzqws7G7qOZCPQtSL-25" value="" style="ellipse;whiteSpace=wrap;html=1;aspect=fixed;" vertex="1" parent="1">
          <mxGeometry x="283" y="85" width="10" height="10" as="geometry" />
        </mxCell>
        <mxCell id="nBgyzqws7G7qOZCPQtSL-26" value="" style="ellipse;whiteSpace=wrap;html=1;aspect=fixed;" vertex="1" parent="1">
          <mxGeometry x="333" y="70" width="10" height="10" as="geometry" />
        </mxCell>
        <mxCell id="nBgyzqws7G7qOZCPQtSL-27" value="" style="ellipse;whiteSpace=wrap;html=1;aspect=fixed;" vertex="1" parent="1">
          <mxGeometry x="363" y="55" width="10" height="10" as="geometry" />
        </mxCell>
        <mxCell id="nBgyzqws7G7qOZCPQtSL-28" value="" style="ellipse;whiteSpace=wrap;html=1;aspect=fixed;fillColor=#e51400;fontColor=#ffffff;strokeColor=#B20000;" vertex="1" parent="1">
          <mxGeometry x="253" y="55" width="10" height="10" as="geometry" />
        </mxCell>
        <mxCell id="nBgyzqws7G7qOZCPQtSL-29" value="" style="ellipse;whiteSpace=wrap;html=1;aspect=fixed;" vertex="1" parent="1">
          <mxGeometry x="363" y="85" width="10" height="10" as="geometry" />
        </mxCell>
        <mxCell id="nBgyzqws7G7qOZCPQtSL-30" value="" style="ellipse;whiteSpace=wrap;html=1;aspect=fixed;fillColor=#e51400;fontColor=#ffffff;strokeColor=#B20000;" vertex="1" parent="1">
          <mxGeometry x="383" y="70" width="10" height="10" as="geometry" />
        </mxCell>
        <mxCell id="nBgyzqws7G7qOZCPQtSL-31" value="" style="ellipse;whiteSpace=wrap;html=1;aspect=fixed;fillColor=#e51400;fontColor=#ffffff;strokeColor=#B20000;" vertex="1" parent="1">
          <mxGeometry x="263" y="75" width="10" height="10" as="geometry" />
        </mxCell>
        <mxCell id="nBgyzqws7G7qOZCPQtSL-32" value="" style="ellipse;whiteSpace=wrap;html=1;aspect=fixed;fillColor=#e51400;fontColor=#ffffff;strokeColor=#B20000;" vertex="1" parent="1">
          <mxGeometry x="313" y="90" width="10" height="10" as="geometry" />
        </mxCell>
        <mxCell id="nBgyzqws7G7qOZCPQtSL-33" value="" style="ellipse;whiteSpace=wrap;html=1;aspect=fixed;fillColor=#e51400;fontColor=#ffffff;strokeColor=#B20000;" vertex="1" parent="1">
          <mxGeometry x="303" y="65" width="10" height="10" as="geometry" />
        </mxCell>
        <mxCell id="nBgyzqws7G7qOZCPQtSL-37" value="" style="ellipse;whiteSpace=wrap;html=1;aspect=fixed;fillColor=#e51400;fontColor=#ffffff;strokeColor=#B20000;" vertex="1" parent="1">
          <mxGeometry x="268" y="96" width="10" height="10" as="geometry" />
        </mxCell>
        <mxCell id="nBgyzqws7G7qOZCPQtSL-38" value="" style="ellipse;whiteSpace=wrap;html=1;aspect=fixed;fillColor=#e51400;fontColor=#ffffff;strokeColor=#B20000;" vertex="1" parent="1">
          <mxGeometry x="243" y="80" width="10" height="10" as="geometry" />
        </mxCell>
        <mxCell id="nBgyzqws7G7qOZCPQtSL-39" value="" style="ellipse;whiteSpace=wrap;html=1;aspect=fixed;fillColor=#e51400;fontColor=#ffffff;strokeColor=#B20000;" vertex="1" parent="1">
          <mxGeometry x="393" y="90" width="10" height="10" as="geometry" />
        </mxCell>
        <mxCell id="nBgyzqws7G7qOZCPQtSL-40" value="" style="ellipse;whiteSpace=wrap;html=1;aspect=fixed;fillColor=#e51400;fontColor=#ffffff;strokeColor=#B20000;" vertex="1" parent="1">
          <mxGeometry x="413" y="78" width="10" height="10" as="geometry" />
        </mxCell>
        <mxCell id="nBgyzqws7G7qOZCPQtSL-41" value="" style="ellipse;whiteSpace=wrap;html=1;aspect=fixed;fillColor=#e51400;fontColor=#ffffff;strokeColor=#B20000;" vertex="1" parent="1">
          <mxGeometry x="403" y="60" width="10" height="10" as="geometry" />
        </mxCell>
        <mxCell id="nBgyzqws7G7qOZCPQtSL-43" value="" style="ellipse;whiteSpace=wrap;html=1;aspect=fixed;fillColor=#e51400;fontColor=#ffffff;strokeColor=#B20000;" vertex="1" parent="1">
          <mxGeometry x="351" y="74" width="10" height="10" as="geometry" />
        </mxCell>
        <mxCell id="nBgyzqws7G7qOZCPQtSL-44" value="" style="ellipse;whiteSpace=wrap;html=1;aspect=fixed;fillColor=#e51400;fontColor=#ffffff;strokeColor=#B20000;" vertex="1" parent="1">
          <mxGeometry x="433" y="60" width="10" height="10" as="geometry" />
        </mxCell>
        <mxCell id="nBgyzqws7G7qOZCPQtSL-45" value="" style="ellipse;whiteSpace=wrap;html=1;aspect=fixed;" vertex="1" parent="1">
          <mxGeometry x="456" y="96" width="10" height="10" as="geometry" />
        </mxCell>
        <mxCell id="nBgyzqws7G7qOZCPQtSL-46" value="" style="ellipse;whiteSpace=wrap;html=1;aspect=fixed;" vertex="1" parent="1">
          <mxGeometry x="453" y="70" width="10" height="10" as="geometry" />
        </mxCell>
        <mxCell id="nBgyzqws7G7qOZCPQtSL-47" value="" style="ellipse;whiteSpace=wrap;html=1;aspect=fixed;fillColor=#e51400;fontColor=#ffffff;strokeColor=#B20000;" vertex="1" parent="1">
          <mxGeometry x="483" y="70" width="10" height="10" as="geometry" />
        </mxCell>
        <mxCell id="nBgyzqws7G7qOZCPQtSL-48" value="" style="ellipse;whiteSpace=wrap;html=1;aspect=fixed;fillColor=#e51400;fontColor=#ffffff;strokeColor=#B20000;" vertex="1" parent="1">
          <mxGeometry x="493" y="92" width="10" height="10" as="geometry" />
        </mxCell>
        <mxCell id="nBgyzqws7G7qOZCPQtSL-49" value="" style="ellipse;whiteSpace=wrap;html=1;aspect=fixed;fillColor=#e51400;fontColor=#ffffff;strokeColor=#B20000;" vertex="1" parent="1">
          <mxGeometry x="473" y="57" width="10" height="10" as="geometry" />
        </mxCell>
        <mxCell id="nBgyzqws7G7qOZCPQtSL-50" value="" style="ellipse;whiteSpace=wrap;html=1;aspect=fixed;" vertex="1" parent="1">
          <mxGeometry x="512" y="72" width="10" height="10" as="geometry" />
        </mxCell>
        <mxCell id="nBgyzqws7G7qOZCPQtSL-51" value="" style="ellipse;whiteSpace=wrap;html=1;aspect=fixed;" vertex="1" parent="1">
          <mxGeometry x="511" y="86" width="10" height="10" as="geometry" />
        </mxCell>
        <mxCell id="nBgyzqws7G7qOZCPQtSL-52" value="" style="ellipse;whiteSpace=wrap;html=1;aspect=fixed;" vertex="1" parent="1">
          <mxGeometry x="540" y="88" width="10" height="10" as="geometry" />
        </mxCell>
        <mxCell id="nBgyzqws7G7qOZCPQtSL-53" value="" style="ellipse;whiteSpace=wrap;html=1;aspect=fixed;fillColor=#e51400;fontColor=#ffffff;strokeColor=#B20000;" vertex="1" parent="1">
          <mxGeometry x="543" y="62" width="10" height="10" as="geometry" />
        </mxCell>
        <mxCell id="nBgyzqws7G7qOZCPQtSL-54" value="" style="ellipse;whiteSpace=wrap;html=1;aspect=fixed;" vertex="1" parent="1">
          <mxGeometry x="543" y="76" width="10" height="10" as="geometry" />
        </mxCell>
        <mxCell id="nBgyzqws7G7qOZCPQtSL-55" value="" style="fontColor=#ffffff;verticalAlign=top;verticalLabelPosition=bottom;labelPosition=center;align=center;html=1;outlineConnect=0;fillColor=#e51400;strokeColor=#B20000;gradientDirection=north;strokeWidth=2;shape=mxgraph.networks.radio_tower;" vertex="1" parent="1">
          <mxGeometry x="597" y="48.5" width="30" height="64.5" as="geometry" />
        </mxCell>
        <mxCell id="nBgyzqws7G7qOZCPQtSL-56" value="" style="ellipse;whiteSpace=wrap;html=1;aspect=fixed;" vertex="1" parent="1">
          <mxGeometry x="476" y="96" width="10" height="10" as="geometry" />
        </mxCell>
        <mxCell id="nBgyzqws7G7qOZCPQtSL-58" value="" style="ellipse;whiteSpace=wrap;html=1;aspect=fixed;fillColor=#e51400;fontColor=#ffffff;strokeColor=#B20000;" vertex="1" parent="1">
          <mxGeometry x="463" y="83" width="10" height="10" as="geometry" />
        </mxCell>
        <mxCell id="nBgyzqws7G7qOZCPQtSL-59" value="" style="ellipse;whiteSpace=wrap;html=1;aspect=fixed;" vertex="1" parent="1">
          <mxGeometry x="398" y="75" width="10" height="10" as="geometry" />
        </mxCell>
        <mxCell id="nBgyzqws7G7qOZCPQtSL-60" value="" style="ellipse;whiteSpace=wrap;html=1;aspect=fixed;" vertex="1" parent="1">
          <mxGeometry x="341" y="90" width="10" height="10" as="geometry" />
        </mxCell>
        <mxCell id="nBgyzqws7G7qOZCPQtSL-61" value="" style="ellipse;whiteSpace=wrap;html=1;aspect=fixed;" vertex="1" parent="1">
          <mxGeometry x="341" y="55" width="10" height="10" as="geometry" />
        </mxCell>
        <mxCell id="nBgyzqws7G7qOZCPQtSL-62" value="" style="ellipse;whiteSpace=wrap;html=1;aspect=fixed;" vertex="1" parent="1">
          <mxGeometry x="303" y="80" width="10" height="10" as="geometry" />
        </mxCell>
        <mxCell id="nBgyzqws7G7qOZCPQtSL-63" value="" style="ellipse;whiteSpace=wrap;html=1;aspect=fixed;fillColor=#e51400;fontColor=#ffffff;strokeColor=#B20000;" vertex="1" parent="1">
          <mxGeometry x="433" y="90" width="10" height="10" as="geometry" />
        </mxCell>
        <mxCell id="nBgyzqws7G7qOZCPQtSL-64" value="" style="ellipse;whiteSpace=wrap;html=1;aspect=fixed;" vertex="1" parent="1">
          <mxGeometry x="433" y="76" width="10" height="10" as="geometry" />
        </mxCell>
        <mxCell id="nBgyzqws7G7qOZCPQtSL-65" value="" style="ellipse;whiteSpace=wrap;html=1;aspect=fixed;" vertex="1" parent="1">
          <mxGeometry x="521" y="55" width="10" height="10" as="geometry" />
        </mxCell>
        <mxCell id="nBgyzqws7G7qOZCPQtSL-66" value="" style="ellipse;whiteSpace=wrap;html=1;aspect=fixed;fillColor=#e51400;fontColor=#ffffff;strokeColor=#B20000;" vertex="1" parent="1">
          <mxGeometry x="526.5" y="78" width="10" height="10" as="geometry" />
        </mxCell>
        <mxCell id="nBgyzqws7G7qOZCPQtSL-67" value="" style="ellipse;whiteSpace=wrap;html=1;aspect=fixed;fillColor=#e51400;fontColor=#ffffff;strokeColor=#B20000;" vertex="1" parent="1">
          <mxGeometry x="502" y="64" width="10" height="10" as="geometry" />
        </mxCell>
        <mxCell id="nBgyzqws7G7qOZCPQtSL-68" value="" style="ellipse;whiteSpace=wrap;html=1;aspect=fixed;" vertex="1" parent="1">
          <mxGeometry x="388" y="57" width="10" height="10" as="geometry" />
        </mxCell>
        <mxCell id="nBgyzqws7G7qOZCPQtSL-69" value="" style="ellipse;whiteSpace=wrap;html=1;aspect=fixed;" vertex="1" parent="1">
          <mxGeometry x="313" y="55" width="10" height="10" as="geometry" />
        </mxCell>
        <mxCell id="nBgyzqws7G7qOZCPQtSL-70" value="&lt;font style=&quot;font-size: 13px;&quot; face=&quot;Times New Roman&quot;&gt;&amp;nbsp; &amp;nbsp; &amp;nbsp; &amp;nbsp;High Energy Node CH candidates&lt;br&gt;&lt;br&gt;&amp;nbsp; &amp;nbsp; &amp;nbsp; &amp;nbsp;Not CH candidates&lt;/font&gt;" style="rounded=0;whiteSpace=wrap;html=1;strokeColor=none;fillColor=none;" vertex="1" parent="1">
          <mxGeometry x="101" y="51" width="130" height="60" as="geometry" />
        </mxCell>
        <mxCell id="nBgyzqws7G7qOZCPQtSL-71" value="" style="ellipse;whiteSpace=wrap;html=1;aspect=fixed;fillColor=#e51400;fontColor=#ffffff;strokeColor=#B20000;" vertex="1" parent="1">
          <mxGeometry x="109" y="57" width="10" height="10" as="geometry" />
        </mxCell>
        <mxCell id="nBgyzqws7G7qOZCPQtSL-73" value="" style="ellipse;whiteSpace=wrap;html=1;aspect=fixed;" vertex="1" parent="1">
          <mxGeometry x="109" y="96" width="10" height="10" as="geometry" />
        </mxCell>
        <mxCell id="nBgyzqws7G7qOZCPQtSL-76" value="&lt;font face=&quot;Times New Roman&quot;&gt;Base Station&lt;/font&gt;" style="rounded=0;whiteSpace=wrap;html=1;strokeColor=none;fillColor=none;" vertex="1" parent="1">
          <mxGeometry x="573" y="116" width="68" height="10" as="geometry" />
        </mxCell>
        <mxCell id="nBgyzqws7G7qOZCPQtSL-79" value="" style="rounded=0;whiteSpace=wrap;html=1;fillColor=#f5f5f5;strokeColor=#666666;fontColor=#333333;" vertex="1" parent="1">
          <mxGeometry x="235" y="141" width="326" height="60" as="geometry" />
        </mxCell>
        <mxCell id="nBgyzqws7G7qOZCPQtSL-80" value="" style="ellipse;whiteSpace=wrap;html=1;aspect=fixed;" vertex="1" parent="1">
          <mxGeometry x="283" y="146" width="10" height="10" as="geometry" />
        </mxCell>
        <mxCell id="nBgyzqws7G7qOZCPQtSL-81" value="" style="ellipse;whiteSpace=wrap;html=1;aspect=fixed;" vertex="1" parent="1">
          <mxGeometry x="283" y="176" width="10" height="10" as="geometry" />
        </mxCell>
        <mxCell id="nBgyzqws7G7qOZCPQtSL-82" value="" style="ellipse;whiteSpace=wrap;html=1;aspect=fixed;" vertex="1" parent="1">
          <mxGeometry x="333" y="161" width="10" height="10" as="geometry" />
        </mxCell>
        <mxCell id="nBgyzqws7G7qOZCPQtSL-83" value="" style="ellipse;whiteSpace=wrap;html=1;aspect=fixed;" vertex="1" parent="1">
          <mxGeometry x="363" y="146" width="10" height="10" as="geometry" />
        </mxCell>
        <mxCell id="nBgyzqws7G7qOZCPQtSL-84" value="" style="ellipse;whiteSpace=wrap;html=1;aspect=fixed;" vertex="1" parent="1">
          <mxGeometry x="253" y="146" width="10" height="10" as="geometry" />
        </mxCell>
        <mxCell id="nBgyzqws7G7qOZCPQtSL-85" value="" style="ellipse;whiteSpace=wrap;html=1;aspect=fixed;" vertex="1" parent="1">
          <mxGeometry x="363" y="176" width="10" height="10" as="geometry" />
        </mxCell>
        <mxCell id="nBgyzqws7G7qOZCPQtSL-86" value="" style="ellipse;whiteSpace=wrap;html=1;aspect=fixed;" vertex="1" parent="1">
          <mxGeometry x="383" y="161" width="10" height="10" as="geometry" />
        </mxCell>
        <mxCell id="nBgyzqws7G7qOZCPQtSL-87" value="" style="ellipse;whiteSpace=wrap;html=1;aspect=fixed;fillColor=#e51400;fontColor=#ffffff;strokeColor=#B20000;" vertex="1" parent="1">
          <mxGeometry x="263" y="166" width="10" height="10" as="geometry" />
        </mxCell>
        <mxCell id="nBgyzqws7G7qOZCPQtSL-88" value="" style="ellipse;whiteSpace=wrap;html=1;aspect=fixed;fillColor=#e51400;fontColor=#ffffff;strokeColor=#B20000;" vertex="1" parent="1">
          <mxGeometry x="313" y="181" width="10" height="10" as="geometry" />
        </mxCell>
        <mxCell id="nBgyzqws7G7qOZCPQtSL-89" value="" style="ellipse;whiteSpace=wrap;html=1;aspect=fixed;fillColor=#e51400;fontColor=#ffffff;strokeColor=#B20000;" vertex="1" parent="1">
          <mxGeometry x="303" y="156" width="10" height="10" as="geometry" />
        </mxCell>
        <mxCell id="nBgyzqws7G7qOZCPQtSL-90" value="" style="ellipse;whiteSpace=wrap;html=1;aspect=fixed;" vertex="1" parent="1">
          <mxGeometry x="268" y="187" width="10" height="10" as="geometry" />
        </mxCell>
        <mxCell id="nBgyzqws7G7qOZCPQtSL-91" value="" style="ellipse;whiteSpace=wrap;html=1;aspect=fixed;" vertex="1" parent="1">
          <mxGeometry x="243" y="171" width="10" height="10" as="geometry" />
        </mxCell>
        <mxCell id="nBgyzqws7G7qOZCPQtSL-92" value="" style="ellipse;whiteSpace=wrap;html=1;aspect=fixed;" vertex="1" parent="1">
          <mxGeometry x="393" y="181" width="10" height="10" as="geometry" />
        </mxCell>
        <mxCell id="nBgyzqws7G7qOZCPQtSL-94" value="" style="ellipse;whiteSpace=wrap;html=1;aspect=fixed;" vertex="1" parent="1">
          <mxGeometry x="403" y="151" width="10" height="10" as="geometry" />
        </mxCell>
        <mxCell id="nBgyzqws7G7qOZCPQtSL-95" value="" style="ellipse;whiteSpace=wrap;html=1;aspect=fixed;fillColor=#e51400;fontColor=#ffffff;strokeColor=#B20000;" vertex="1" parent="1">
          <mxGeometry x="351" y="165" width="10" height="10" as="geometry" />
        </mxCell>
        <mxCell id="nBgyzqws7G7qOZCPQtSL-96" value="" style="ellipse;whiteSpace=wrap;html=1;aspect=fixed;" vertex="1" parent="1">
          <mxGeometry x="433" y="151" width="10" height="10" as="geometry" />
        </mxCell>
        <mxCell id="nBgyzqws7G7qOZCPQtSL-97" value="" style="ellipse;whiteSpace=wrap;html=1;aspect=fixed;" vertex="1" parent="1">
          <mxGeometry x="456" y="187" width="10" height="10" as="geometry" />
        </mxCell>
        <mxCell id="nBgyzqws7G7qOZCPQtSL-98" value="" style="ellipse;whiteSpace=wrap;html=1;aspect=fixed;" vertex="1" parent="1">
          <mxGeometry x="453" y="161" width="10" height="10" as="geometry" />
        </mxCell>
        <mxCell id="nBgyzqws7G7qOZCPQtSL-99" value="" style="ellipse;whiteSpace=wrap;html=1;aspect=fixed;fillColor=#e51400;fontColor=#ffffff;strokeColor=#B20000;" vertex="1" parent="1">
          <mxGeometry x="483" y="161" width="10" height="10" as="geometry" />
        </mxCell>
        <mxCell id="nBgyzqws7G7qOZCPQtSL-100" value="" style="ellipse;whiteSpace=wrap;html=1;aspect=fixed;" vertex="1" parent="1">
          <mxGeometry x="493" y="183" width="10" height="10" as="geometry" />
        </mxCell>
        <mxCell id="nBgyzqws7G7qOZCPQtSL-101" value="" style="ellipse;whiteSpace=wrap;html=1;aspect=fixed;" vertex="1" parent="1">
          <mxGeometry x="473" y="148" width="10" height="10" as="geometry" />
        </mxCell>
        <mxCell id="nBgyzqws7G7qOZCPQtSL-102" value="" style="ellipse;whiteSpace=wrap;html=1;aspect=fixed;" vertex="1" parent="1">
          <mxGeometry x="512" y="163" width="10" height="10" as="geometry" />
        </mxCell>
        <mxCell id="nBgyzqws7G7qOZCPQtSL-103" value="" style="ellipse;whiteSpace=wrap;html=1;aspect=fixed;" vertex="1" parent="1">
          <mxGeometry x="511" y="177" width="10" height="10" as="geometry" />
        </mxCell>
        <mxCell id="nBgyzqws7G7qOZCPQtSL-104" value="" style="ellipse;whiteSpace=wrap;html=1;aspect=fixed;" vertex="1" parent="1">
          <mxGeometry x="540" y="179" width="10" height="10" as="geometry" />
        </mxCell>
        <mxCell id="nBgyzqws7G7qOZCPQtSL-105" value="" style="ellipse;whiteSpace=wrap;html=1;aspect=fixed;fillColor=#e51400;fontColor=#ffffff;strokeColor=#B20000;" vertex="1" parent="1">
          <mxGeometry x="543" y="153" width="10" height="10" as="geometry" />
        </mxCell>
        <mxCell id="nBgyzqws7G7qOZCPQtSL-106" value="" style="ellipse;whiteSpace=wrap;html=1;aspect=fixed;" vertex="1" parent="1">
          <mxGeometry x="543" y="167" width="10" height="10" as="geometry" />
        </mxCell>
        <mxCell id="nBgyzqws7G7qOZCPQtSL-107" value="" style="ellipse;whiteSpace=wrap;html=1;aspect=fixed;" vertex="1" parent="1">
          <mxGeometry x="476" y="187" width="10" height="10" as="geometry" />
        </mxCell>
        <mxCell id="nBgyzqws7G7qOZCPQtSL-108" value="" style="ellipse;whiteSpace=wrap;html=1;aspect=fixed;fillColor=#e51400;fontColor=#ffffff;strokeColor=#B20000;" vertex="1" parent="1">
          <mxGeometry x="463" y="174" width="10" height="10" as="geometry" />
        </mxCell>
        <mxCell id="nBgyzqws7G7qOZCPQtSL-109" value="" style="ellipse;whiteSpace=wrap;html=1;aspect=fixed;" vertex="1" parent="1">
          <mxGeometry x="398" y="166" width="10" height="10" as="geometry" />
        </mxCell>
        <mxCell id="nBgyzqws7G7qOZCPQtSL-110" value="" style="ellipse;whiteSpace=wrap;html=1;aspect=fixed;" vertex="1" parent="1">
          <mxGeometry x="341" y="181" width="10" height="10" as="geometry" />
        </mxCell>
        <mxCell id="nBgyzqws7G7qOZCPQtSL-111" value="" style="ellipse;whiteSpace=wrap;html=1;aspect=fixed;" vertex="1" parent="1">
          <mxGeometry x="341" y="146" width="10" height="10" as="geometry" />
        </mxCell>
        <mxCell id="nBgyzqws7G7qOZCPQtSL-112" value="" style="ellipse;whiteSpace=wrap;html=1;aspect=fixed;" vertex="1" parent="1">
          <mxGeometry x="303" y="171" width="10" height="10" as="geometry" />
        </mxCell>
        <mxCell id="nBgyzqws7G7qOZCPQtSL-113" value="" style="ellipse;whiteSpace=wrap;html=1;aspect=fixed;" vertex="1" parent="1">
          <mxGeometry x="433" y="181" width="10" height="10" as="geometry" />
        </mxCell>
        <mxCell id="nBgyzqws7G7qOZCPQtSL-114" value="" style="ellipse;whiteSpace=wrap;html=1;aspect=fixed;" vertex="1" parent="1">
          <mxGeometry x="433" y="167" width="10" height="10" as="geometry" />
        </mxCell>
        <mxCell id="nBgyzqws7G7qOZCPQtSL-115" value="" style="ellipse;whiteSpace=wrap;html=1;aspect=fixed;" vertex="1" parent="1">
          <mxGeometry x="521" y="146" width="10" height="10" as="geometry" />
        </mxCell>
        <mxCell id="nBgyzqws7G7qOZCPQtSL-116" value="" style="ellipse;whiteSpace=wrap;html=1;aspect=fixed;fillColor=#e51400;fontColor=#ffffff;strokeColor=#B20000;" vertex="1" parent="1">
          <mxGeometry x="526.5" y="169" width="10" height="10" as="geometry" />
        </mxCell>
        <mxCell id="nBgyzqws7G7qOZCPQtSL-117" value="" style="ellipse;whiteSpace=wrap;html=1;aspect=fixed;" vertex="1" parent="1">
          <mxGeometry x="502" y="155" width="10" height="10" as="geometry" />
        </mxCell>
        <mxCell id="nBgyzqws7G7qOZCPQtSL-118" value="" style="ellipse;whiteSpace=wrap;html=1;aspect=fixed;fillColor=#e51400;fontColor=#ffffff;strokeColor=#B20000;" vertex="1" parent="1">
          <mxGeometry x="388" y="148" width="10" height="10" as="geometry" />
        </mxCell>
        <mxCell id="nBgyzqws7G7qOZCPQtSL-119" value="" style="ellipse;whiteSpace=wrap;html=1;aspect=fixed;" vertex="1" parent="1">
          <mxGeometry x="313" y="146" width="10" height="10" as="geometry" />
        </mxCell>
        <mxCell id="nBgyzqws7G7qOZCPQtSL-122" value="" style="ellipse;whiteSpace=wrap;html=1;aspect=fixed;fillColor=#e51400;fontColor=#ffffff;strokeColor=#B20000;" vertex="1" parent="1">
          <mxGeometry x="413" y="170" width="10" height="10" as="geometry" />
        </mxCell>
        <mxCell id="nBgyzqws7G7qOZCPQtSL-124" value="" style="fontColor=#ffffff;verticalAlign=top;verticalLabelPosition=bottom;labelPosition=center;align=center;html=1;outlineConnect=0;fillColor=#e51400;strokeColor=#B20000;gradientDirection=north;strokeWidth=2;shape=mxgraph.networks.radio_tower;" vertex="1" parent="1">
          <mxGeometry x="597" y="137.75" width="30" height="64.5" as="geometry" />
        </mxCell>
        <mxCell id="nBgyzqws7G7qOZCPQtSL-126" value="&lt;font face=&quot;Times New Roman&quot;&gt;Base Station&lt;/font&gt;" style="rounded=0;whiteSpace=wrap;html=1;strokeColor=none;fillColor=none;" vertex="1" parent="1">
          <mxGeometry x="573" y="204" width="68" height="10" as="geometry" />
        </mxCell>
        <mxCell id="nBgyzqws7G7qOZCPQtSL-129" value="" style="endArrow=none;dashed=1;html=1;rounded=0;entryX=0.107;entryY=-0.017;entryDx=0;entryDy=0;entryPerimeter=0;" edge="1" parent="1" target="nBgyzqws7G7qOZCPQtSL-79">
          <mxGeometry width="50" height="50" relative="1" as="geometry">
            <mxPoint x="310" y="200" as="sourcePoint" />
            <mxPoint x="340" y="230" as="targetPoint" />
          </mxGeometry>
        </mxCell>
        <mxCell id="nBgyzqws7G7qOZCPQtSL-130" value="" style="endArrow=none;dashed=1;html=1;rounded=0;entryX=0.282;entryY=0.017;entryDx=0;entryDy=0;entryPerimeter=0;exitX=0.25;exitY=1;exitDx=0;exitDy=0;" edge="1" parent="1">
          <mxGeometry width="50" height="50" relative="1" as="geometry">
            <mxPoint x="324.5" y="199" as="sourcePoint" />
            <mxPoint x="334.932" y="140.01999999999998" as="targetPoint" />
          </mxGeometry>
        </mxCell>
        <mxCell id="nBgyzqws7G7qOZCPQtSL-131" value="" style="endArrow=none;dashed=1;html=1;rounded=0;entryX=0.436;entryY=0;entryDx=0;entryDy=0;entryPerimeter=0;exitX=0.436;exitY=0.967;exitDx=0;exitDy=0;exitPerimeter=0;" edge="1" parent="1">
          <mxGeometry width="50" height="50" relative="1" as="geometry">
            <mxPoint x="379.13599999999997" y="199.01999999999998" as="sourcePoint" />
            <mxPoint x="379.13599999999997" y="141" as="targetPoint" />
          </mxGeometry>
        </mxCell>
        <mxCell id="nBgyzqws7G7qOZCPQtSL-132" value="" style="endArrow=none;dashed=1;html=1;rounded=0;entryX=0.605;entryY=-0.002;entryDx=0;entryDy=0;entryPerimeter=0;exitX=0.564;exitY=0.998;exitDx=0;exitDy=0;exitPerimeter=0;" edge="1" parent="1">
          <mxGeometry width="50" height="50" relative="1" as="geometry">
            <mxPoint x="420.86400000000003" y="200.88" as="sourcePoint" />
            <mxPoint x="434.23" y="140.88" as="targetPoint" />
          </mxGeometry>
        </mxCell>
        <mxCell id="nBgyzqws7G7qOZCPQtSL-133" value="" style="endArrow=none;dashed=1;html=1;rounded=0;entryX=0.791;entryY=0.017;entryDx=0;entryDy=0;entryPerimeter=0;exitX=0.847;exitY=1.033;exitDx=0;exitDy=0;exitPerimeter=0;" edge="1" parent="1">
          <mxGeometry width="50" height="50" relative="1" as="geometry">
            <mxPoint x="511.12200000000007" y="200.98000000000002" as="sourcePoint" />
            <mxPoint x="492.866" y="140.01999999999998" as="targetPoint" />
          </mxGeometry>
        </mxCell>
        <mxCell id="nBgyzqws7G7qOZCPQtSL-134" value="&lt;font style=&quot;font-size: 13px;&quot; face=&quot;Times New Roman&quot;&gt;Divided WSN field into&amp;nbsp; spatial sectors&amp;nbsp;&amp;amp; filters CH based on&amp;nbsp;spatial centrality&lt;/font&gt;" style="rounded=0;whiteSpace=wrap;html=1;fillColor=none;strokeColor=none;align=left;" vertex="1" parent="1">
          <mxGeometry x="105" y="139" width="125" height="60" as="geometry" />
        </mxCell>
        <mxCell id="nBgyzqws7G7qOZCPQtSL-135" value="" style="rounded=0;whiteSpace=wrap;html=1;fillColor=#f5f5f5;strokeColor=#666666;fontColor=#333333;" vertex="1" parent="1">
          <mxGeometry x="234" y="230.98000000000002" width="326" height="60" as="geometry" />
        </mxCell>
        <mxCell id="nBgyzqws7G7qOZCPQtSL-136" value="" style="ellipse;whiteSpace=wrap;html=1;aspect=fixed;" vertex="1" parent="1">
          <mxGeometry x="282" y="235.98000000000002" width="10" height="10" as="geometry" />
        </mxCell>
        <mxCell id="nBgyzqws7G7qOZCPQtSL-137" value="" style="ellipse;whiteSpace=wrap;html=1;aspect=fixed;" vertex="1" parent="1">
          <mxGeometry x="282" y="267.98" width="10" height="10" as="geometry" />
        </mxCell>
        <mxCell id="nBgyzqws7G7qOZCPQtSL-138" value="" style="ellipse;whiteSpace=wrap;html=1;aspect=fixed;" vertex="1" parent="1">
          <mxGeometry x="332" y="252.98000000000002" width="10" height="10" as="geometry" />
        </mxCell>
        <mxCell id="nBgyzqws7G7qOZCPQtSL-139" value="" style="ellipse;whiteSpace=wrap;html=1;aspect=fixed;" vertex="1" parent="1">
          <mxGeometry x="362" y="235.98000000000002" width="10" height="10" as="geometry" />
        </mxCell>
        <mxCell id="nBgyzqws7G7qOZCPQtSL-140" value="" style="ellipse;whiteSpace=wrap;html=1;aspect=fixed;" vertex="1" parent="1">
          <mxGeometry x="252" y="235.98000000000002" width="10" height="10" as="geometry" />
        </mxCell>
        <mxCell id="nBgyzqws7G7qOZCPQtSL-141" value="" style="ellipse;whiteSpace=wrap;html=1;aspect=fixed;" vertex="1" parent="1">
          <mxGeometry x="362" y="267.98" width="10" height="10" as="geometry" />
        </mxCell>
        <mxCell id="nBgyzqws7G7qOZCPQtSL-142" value="" style="ellipse;whiteSpace=wrap;html=1;aspect=fixed;" vertex="1" parent="1">
          <mxGeometry x="382" y="252.98000000000002" width="10" height="10" as="geometry" />
        </mxCell>
        <mxCell id="nBgyzqws7G7qOZCPQtSL-143" value="" style="ellipse;whiteSpace=wrap;html=1;aspect=fixed;fillColor=#e51400;fontColor=#ffffff;strokeColor=#B20000;" vertex="1" parent="1">
          <mxGeometry x="262" y="257.98" width="10" height="10" as="geometry" />
        </mxCell>
        <mxCell id="nBgyzqws7G7qOZCPQtSL-144" value="" style="ellipse;whiteSpace=wrap;html=1;aspect=fixed;" vertex="1" parent="1">
          <mxGeometry x="312" y="272.98" width="10" height="10" as="geometry" />
        </mxCell>
        <mxCell id="nBgyzqws7G7qOZCPQtSL-145" value="" style="ellipse;whiteSpace=wrap;html=1;aspect=fixed;fillColor=#e51400;fontColor=#ffffff;strokeColor=#B20000;" vertex="1" parent="1">
          <mxGeometry x="302" y="248.98000000000002" width="10" height="10" as="geometry" />
        </mxCell>
        <mxCell id="nBgyzqws7G7qOZCPQtSL-146" value="" style="ellipse;whiteSpace=wrap;html=1;aspect=fixed;" vertex="1" parent="1">
          <mxGeometry x="267" y="278.98" width="10" height="10" as="geometry" />
        </mxCell>
        <mxCell id="nBgyzqws7G7qOZCPQtSL-147" value="" style="ellipse;whiteSpace=wrap;html=1;aspect=fixed;" vertex="1" parent="1">
          <mxGeometry x="242" y="262.98" width="10" height="10" as="geometry" />
        </mxCell>
        <mxCell id="nBgyzqws7G7qOZCPQtSL-148" value="" style="ellipse;whiteSpace=wrap;html=1;aspect=fixed;" vertex="1" parent="1">
          <mxGeometry x="392" y="272.98" width="10" height="10" as="geometry" />
        </mxCell>
        <mxCell id="nBgyzqws7G7qOZCPQtSL-149" value="" style="ellipse;whiteSpace=wrap;html=1;aspect=fixed;" vertex="1" parent="1">
          <mxGeometry x="402" y="242.98000000000002" width="10" height="10" as="geometry" />
        </mxCell>
        <mxCell id="nBgyzqws7G7qOZCPQtSL-150" value="" style="ellipse;whiteSpace=wrap;html=1;aspect=fixed;fillColor=#e51400;fontColor=#ffffff;strokeColor=#B20000;" vertex="1" parent="1">
          <mxGeometry x="350" y="256.98" width="10" height="10" as="geometry" />
        </mxCell>
        <mxCell id="nBgyzqws7G7qOZCPQtSL-151" value="" style="ellipse;whiteSpace=wrap;html=1;aspect=fixed;" vertex="1" parent="1">
          <mxGeometry x="432" y="242.98000000000002" width="10" height="10" as="geometry" />
        </mxCell>
        <mxCell id="nBgyzqws7G7qOZCPQtSL-152" value="" style="ellipse;whiteSpace=wrap;html=1;aspect=fixed;" vertex="1" parent="1">
          <mxGeometry x="455" y="278.98" width="10" height="10" as="geometry" />
        </mxCell>
        <mxCell id="nBgyzqws7G7qOZCPQtSL-153" value="" style="ellipse;whiteSpace=wrap;html=1;aspect=fixed;" vertex="1" parent="1">
          <mxGeometry x="452" y="252.98000000000002" width="10" height="10" as="geometry" />
        </mxCell>
        <mxCell id="nBgyzqws7G7qOZCPQtSL-154" value="" style="ellipse;whiteSpace=wrap;html=1;aspect=fixed;" vertex="1" parent="1">
          <mxGeometry x="482" y="252.98000000000002" width="10" height="10" as="geometry" />
        </mxCell>
        <mxCell id="nBgyzqws7G7qOZCPQtSL-155" value="" style="ellipse;whiteSpace=wrap;html=1;aspect=fixed;" vertex="1" parent="1">
          <mxGeometry x="492" y="274.98" width="10" height="10" as="geometry" />
        </mxCell>
        <mxCell id="nBgyzqws7G7qOZCPQtSL-156" value="" style="ellipse;whiteSpace=wrap;html=1;aspect=fixed;" vertex="1" parent="1">
          <mxGeometry x="472" y="239.98000000000002" width="10" height="10" as="geometry" />
        </mxCell>
        <mxCell id="nBgyzqws7G7qOZCPQtSL-157" value="" style="ellipse;whiteSpace=wrap;html=1;aspect=fixed;" vertex="1" parent="1">
          <mxGeometry x="511" y="254.98000000000002" width="10" height="10" as="geometry" />
        </mxCell>
        <mxCell id="nBgyzqws7G7qOZCPQtSL-158" value="" style="ellipse;whiteSpace=wrap;html=1;aspect=fixed;" vertex="1" parent="1">
          <mxGeometry x="510" y="268.98" width="10" height="10" as="geometry" />
        </mxCell>
        <mxCell id="nBgyzqws7G7qOZCPQtSL-159" value="" style="ellipse;whiteSpace=wrap;html=1;aspect=fixed;" vertex="1" parent="1">
          <mxGeometry x="539" y="270.98" width="10" height="10" as="geometry" />
        </mxCell>
        <mxCell id="nBgyzqws7G7qOZCPQtSL-160" value="" style="ellipse;whiteSpace=wrap;html=1;aspect=fixed;" vertex="1" parent="1">
          <mxGeometry x="542" y="244.98000000000002" width="10" height="10" as="geometry" />
        </mxCell>
        <mxCell id="nBgyzqws7G7qOZCPQtSL-161" value="" style="ellipse;whiteSpace=wrap;html=1;aspect=fixed;" vertex="1" parent="1">
          <mxGeometry x="542" y="258.98" width="10" height="10" as="geometry" />
        </mxCell>
        <mxCell id="nBgyzqws7G7qOZCPQtSL-162" value="" style="ellipse;whiteSpace=wrap;html=1;aspect=fixed;" vertex="1" parent="1">
          <mxGeometry x="475" y="278.98" width="10" height="10" as="geometry" />
        </mxCell>
        <mxCell id="nBgyzqws7G7qOZCPQtSL-163" value="" style="ellipse;whiteSpace=wrap;html=1;aspect=fixed;fillColor=#e51400;fontColor=#ffffff;strokeColor=#B20000;" vertex="1" parent="1">
          <mxGeometry x="462" y="265.98" width="10" height="10" as="geometry" />
        </mxCell>
        <mxCell id="nBgyzqws7G7qOZCPQtSL-164" value="" style="ellipse;whiteSpace=wrap;html=1;aspect=fixed;" vertex="1" parent="1">
          <mxGeometry x="397" y="257.98" width="10" height="10" as="geometry" />
        </mxCell>
        <mxCell id="nBgyzqws7G7qOZCPQtSL-165" value="" style="ellipse;whiteSpace=wrap;html=1;aspect=fixed;" vertex="1" parent="1">
          <mxGeometry x="340" y="272.98" width="10" height="10" as="geometry" />
        </mxCell>
        <mxCell id="nBgyzqws7G7qOZCPQtSL-166" value="" style="ellipse;whiteSpace=wrap;html=1;aspect=fixed;" vertex="1" parent="1">
          <mxGeometry x="340" y="235.98000000000002" width="10" height="10" as="geometry" />
        </mxCell>
        <mxCell id="nBgyzqws7G7qOZCPQtSL-167" value="" style="ellipse;whiteSpace=wrap;html=1;aspect=fixed;" vertex="1" parent="1">
          <mxGeometry x="302" y="262.98" width="10" height="10" as="geometry" />
        </mxCell>
        <mxCell id="nBgyzqws7G7qOZCPQtSL-168" value="" style="ellipse;whiteSpace=wrap;html=1;aspect=fixed;" vertex="1" parent="1">
          <mxGeometry x="432" y="272.98" width="10" height="10" as="geometry" />
        </mxCell>
        <mxCell id="nBgyzqws7G7qOZCPQtSL-169" value="" style="ellipse;whiteSpace=wrap;html=1;aspect=fixed;" vertex="1" parent="1">
          <mxGeometry x="432" y="258.98" width="10" height="10" as="geometry" />
        </mxCell>
        <mxCell id="nBgyzqws7G7qOZCPQtSL-170" value="" style="ellipse;whiteSpace=wrap;html=1;aspect=fixed;" vertex="1" parent="1">
          <mxGeometry x="520" y="235.98000000000002" width="10" height="10" as="geometry" />
        </mxCell>
        <mxCell id="nBgyzqws7G7qOZCPQtSL-171" value="" style="ellipse;whiteSpace=wrap;html=1;aspect=fixed;fillColor=#e51400;fontColor=#ffffff;strokeColor=#B20000;" vertex="1" parent="1">
          <mxGeometry x="525.5" y="260.98" width="10" height="10" as="geometry" />
        </mxCell>
        <mxCell id="nBgyzqws7G7qOZCPQtSL-172" value="" style="ellipse;whiteSpace=wrap;html=1;aspect=fixed;" vertex="1" parent="1">
          <mxGeometry x="501" y="246.98000000000002" width="10" height="10" as="geometry" />
        </mxCell>
        <mxCell id="nBgyzqws7G7qOZCPQtSL-173" value="" style="ellipse;whiteSpace=wrap;html=1;aspect=fixed;" vertex="1" parent="1">
          <mxGeometry x="387" y="239.98000000000002" width="10" height="10" as="geometry" />
        </mxCell>
        <mxCell id="nBgyzqws7G7qOZCPQtSL-174" value="" style="ellipse;whiteSpace=wrap;html=1;aspect=fixed;" vertex="1" parent="1">
          <mxGeometry x="314" y="234.98000000000002" width="10" height="10" as="geometry" />
        </mxCell>
        <mxCell id="nBgyzqws7G7qOZCPQtSL-175" value="" style="ellipse;whiteSpace=wrap;html=1;aspect=fixed;fillColor=#e51400;fontColor=#ffffff;strokeColor=#B20000;" vertex="1" parent="1">
          <mxGeometry x="412" y="261.98" width="10" height="10" as="geometry" />
        </mxCell>
        <mxCell id="nBgyzqws7G7qOZCPQtSL-176" value="" style="endArrow=none;dashed=1;html=1;rounded=0;entryX=0.282;entryY=0.017;entryDx=0;entryDy=0;entryPerimeter=0;exitX=0.25;exitY=1;exitDx=0;exitDy=0;" edge="1" parent="1">
          <mxGeometry width="50" height="50" relative="1" as="geometry">
            <mxPoint x="323.5" y="288.98" as="sourcePoint" />
            <mxPoint x="333.932" y="230" as="targetPoint" />
          </mxGeometry>
        </mxCell>
        <mxCell id="nBgyzqws7G7qOZCPQtSL-177" value="" style="endArrow=none;dashed=1;html=1;rounded=0;entryX=0.436;entryY=0;entryDx=0;entryDy=0;entryPerimeter=0;exitX=0.436;exitY=0.967;exitDx=0;exitDy=0;exitPerimeter=0;" edge="1" parent="1">
          <mxGeometry width="50" height="50" relative="1" as="geometry">
            <mxPoint x="378.13599999999997" y="289" as="sourcePoint" />
            <mxPoint x="378.13599999999997" y="230.98000000000002" as="targetPoint" />
          </mxGeometry>
        </mxCell>
        <mxCell id="nBgyzqws7G7qOZCPQtSL-178" value="" style="endArrow=none;dashed=1;html=1;rounded=0;entryX=0.647;entryY=0;entryDx=0;entryDy=0;entryPerimeter=0;exitX=0.653;exitY=0.967;exitDx=0;exitDy=0;exitPerimeter=0;" edge="1" parent="1" source="nBgyzqws7G7qOZCPQtSL-135">
          <mxGeometry width="50" height="50" relative="1" as="geometry">
            <mxPoint x="448.9659999999999" y="287.98" as="sourcePoint" />
            <mxPoint x="447.922" y="230.98000000000002" as="targetPoint" />
          </mxGeometry>
        </mxCell>
        <mxCell id="nBgyzqws7G7qOZCPQtSL-179" value="" style="endArrow=none;dashed=1;html=1;rounded=0;entryX=0.791;entryY=0.017;entryDx=0;entryDy=0;entryPerimeter=0;exitX=0.847;exitY=1.033;exitDx=0;exitDy=0;exitPerimeter=0;" edge="1" parent="1">
          <mxGeometry width="50" height="50" relative="1" as="geometry">
            <mxPoint x="510.12200000000007" y="290.96000000000004" as="sourcePoint" />
            <mxPoint x="491.866" y="230" as="targetPoint" />
          </mxGeometry>
        </mxCell>
        <mxCell id="nBgyzqws7G7qOZCPQtSL-180" value="" style="endArrow=none;dashed=1;html=1;rounded=0;entryX=0.107;entryY=-0.017;entryDx=0;entryDy=0;entryPerimeter=0;" edge="1" parent="1">
          <mxGeometry width="50" height="50" relative="1" as="geometry">
            <mxPoint x="310" y="289.98" as="sourcePoint" />
            <mxPoint x="270" y="229.98" as="targetPoint" />
          </mxGeometry>
        </mxCell>
        <mxCell id="nBgyzqws7G7qOZCPQtSL-184" value="" style="endArrow=classic;html=1;rounded=0;entryX=0.5;entryY=0;entryDx=0;entryDy=0;exitX=0.5;exitY=1;exitDx=0;exitDy=0;" edge="1" parent="1" target="nBgyzqws7G7qOZCPQtSL-143">
          <mxGeometry width="50" height="50" relative="1" as="geometry">
            <mxPoint x="257" y="247.98000000000002" as="sourcePoint" />
            <mxPoint x="340" y="233" as="targetPoint" />
          </mxGeometry>
        </mxCell>
        <mxCell id="nBgyzqws7G7qOZCPQtSL-185" value="" style="endArrow=classic;html=1;rounded=0;entryX=0;entryY=1;entryDx=0;entryDy=0;exitX=0.5;exitY=1;exitDx=0;exitDy=0;" edge="1" parent="1" source="nBgyzqws7G7qOZCPQtSL-147" target="nBgyzqws7G7qOZCPQtSL-143">
          <mxGeometry width="50" height="50" relative="1" as="geometry">
            <mxPoint x="270" y="303" as="sourcePoint" />
            <mxPoint x="280" y="313" as="targetPoint" />
          </mxGeometry>
        </mxCell>
        <mxCell id="nBgyzqws7G7qOZCPQtSL-186" value="" style="endArrow=classic;html=1;rounded=0;entryX=0;entryY=1;entryDx=0;entryDy=0;exitX=0.5;exitY=0;exitDx=0;exitDy=0;" edge="1" parent="1" source="nBgyzqws7G7qOZCPQtSL-146" target="nBgyzqws7G7qOZCPQtSL-143">
          <mxGeometry width="50" height="50" relative="1" as="geometry">
            <mxPoint x="270" y="313" as="sourcePoint" />
            <mxPoint x="280" y="323" as="targetPoint" />
          </mxGeometry>
        </mxCell>
        <mxCell id="nBgyzqws7G7qOZCPQtSL-187" value="" style="endArrow=classic;html=1;rounded=0;entryX=1;entryY=0.5;entryDx=0;entryDy=0;exitX=0;exitY=1;exitDx=0;exitDy=0;" edge="1" parent="1" source="nBgyzqws7G7qOZCPQtSL-205" target="nBgyzqws7G7qOZCPQtSL-143">
          <mxGeometry width="50" height="50" relative="1" as="geometry">
            <mxPoint x="290" y="343" as="sourcePoint" />
            <mxPoint x="300" y="353" as="targetPoint" />
          </mxGeometry>
        </mxCell>
        <mxCell id="nBgyzqws7G7qOZCPQtSL-188" value="" style="endArrow=classic;html=1;rounded=0;entryX=0;entryY=1;entryDx=0;entryDy=0;exitX=1;exitY=0;exitDx=0;exitDy=0;" edge="1" parent="1" target="nBgyzqws7G7qOZCPQtSL-145">
          <mxGeometry width="50" height="50" relative="1" as="geometry">
            <mxPoint x="290.53553390593265" y="239.44446609406737" as="sourcePoint" />
            <mxPoint x="270" y="313" as="targetPoint" />
          </mxGeometry>
        </mxCell>
        <mxCell id="nBgyzqws7G7qOZCPQtSL-189" value="" style="endArrow=classic;html=1;rounded=0;entryX=0.5;entryY=1;entryDx=0;entryDy=0;exitX=0.5;exitY=1;exitDx=0;exitDy=0;" edge="1" parent="1" source="nBgyzqws7G7qOZCPQtSL-167" target="nBgyzqws7G7qOZCPQtSL-145">
          <mxGeometry width="50" height="50" relative="1" as="geometry">
            <mxPoint x="320" y="373" as="sourcePoint" />
            <mxPoint x="330" y="383" as="targetPoint" />
          </mxGeometry>
        </mxCell>
        <mxCell id="nBgyzqws7G7qOZCPQtSL-190" value="" style="endArrow=classic;html=1;rounded=0;entryX=0.5;entryY=1;entryDx=0;entryDy=0;exitX=0.5;exitY=1;exitDx=0;exitDy=0;" edge="1" parent="1">
          <mxGeometry width="50" height="50" relative="1" as="geometry">
            <mxPoint x="322" y="278.98" as="sourcePoint" />
            <mxPoint x="312" y="253.98000000000002" as="targetPoint" />
          </mxGeometry>
        </mxCell>
        <mxCell id="nBgyzqws7G7qOZCPQtSL-191" value="" style="endArrow=classic;html=1;rounded=0;entryX=0.5;entryY=1;entryDx=0;entryDy=0;exitX=0.5;exitY=0;exitDx=0;exitDy=0;" edge="1" parent="1">
          <mxGeometry width="50" height="50" relative="1" as="geometry">
            <mxPoint x="317" y="234.98000000000002" as="sourcePoint" />
            <mxPoint x="304" y="251.98000000000002" as="targetPoint" />
          </mxGeometry>
        </mxCell>
        <mxCell id="nBgyzqws7G7qOZCPQtSL-192" value="" style="endArrow=classic;html=1;rounded=0;entryX=0;entryY=0;entryDx=0;entryDy=0;exitX=0.5;exitY=0;exitDx=0;exitDy=0;" edge="1" parent="1">
          <mxGeometry width="50" height="50" relative="1" as="geometry">
            <mxPoint x="348" y="235.98000000000002" as="sourcePoint" />
            <mxPoint x="354.46446609406735" y="256.44446609406737" as="targetPoint" />
          </mxGeometry>
        </mxCell>
        <mxCell id="nBgyzqws7G7qOZCPQtSL-193" value="" style="endArrow=classic;html=1;rounded=0;entryX=0.5;entryY=1;entryDx=0;entryDy=0;exitX=0.5;exitY=1;exitDx=0;exitDy=0;" edge="1" parent="1" source="nBgyzqws7G7qOZCPQtSL-138" target="nBgyzqws7G7qOZCPQtSL-150">
          <mxGeometry width="50" height="50" relative="1" as="geometry">
            <mxPoint x="370" y="333" as="sourcePoint" />
            <mxPoint x="380" y="343" as="targetPoint" />
          </mxGeometry>
        </mxCell>
        <mxCell id="nBgyzqws7G7qOZCPQtSL-194" value="" style="endArrow=classic;html=1;rounded=0;exitX=0;exitY=1;exitDx=0;exitDy=0;" edge="1" parent="1">
          <mxGeometry width="50" height="50" relative="1" as="geometry">
            <mxPoint x="348.46446609406735" y="281.51553390593267" as="sourcePoint" />
            <mxPoint x="360" y="267" as="targetPoint" />
          </mxGeometry>
        </mxCell>
        <mxCell id="nBgyzqws7G7qOZCPQtSL-195" value="" style="endArrow=classic;html=1;rounded=0;entryX=1;entryY=0;entryDx=0;entryDy=0;exitX=0;exitY=1;exitDx=0;exitDy=0;" edge="1" parent="1" source="nBgyzqws7G7qOZCPQtSL-141" target="nBgyzqws7G7qOZCPQtSL-150">
          <mxGeometry width="50" height="50" relative="1" as="geometry">
            <mxPoint x="380" y="333" as="sourcePoint" />
            <mxPoint x="390" y="343" as="targetPoint" />
          </mxGeometry>
        </mxCell>
        <mxCell id="nBgyzqws7G7qOZCPQtSL-196" value="" style="endArrow=classic;html=1;rounded=0;entryX=0.5;entryY=1;entryDx=0;entryDy=0;exitX=0;exitY=0.5;exitDx=0;exitDy=0;" edge="1" parent="1" source="nBgyzqws7G7qOZCPQtSL-148" target="nBgyzqws7G7qOZCPQtSL-175">
          <mxGeometry width="50" height="50" relative="1" as="geometry">
            <mxPoint x="390" y="323" as="sourcePoint" />
            <mxPoint x="400" y="333" as="targetPoint" />
          </mxGeometry>
        </mxCell>
        <mxCell id="nBgyzqws7G7qOZCPQtSL-197" value="" style="endArrow=classic;html=1;rounded=0;exitX=1;exitY=0.5;exitDx=0;exitDy=0;" edge="1" parent="1" source="nBgyzqws7G7qOZCPQtSL-149">
          <mxGeometry width="50" height="50" relative="1" as="geometry">
            <mxPoint x="430" y="323" as="sourcePoint" />
            <mxPoint x="420" y="263" as="targetPoint" />
          </mxGeometry>
        </mxCell>
        <mxCell id="nBgyzqws7G7qOZCPQtSL-198" value="" style="endArrow=classic;html=1;rounded=0;entryX=0;entryY=0;entryDx=0;entryDy=0;exitX=0.5;exitY=1;exitDx=0;exitDy=0;" edge="1" parent="1" source="nBgyzqws7G7qOZCPQtSL-173" target="nBgyzqws7G7qOZCPQtSL-175">
          <mxGeometry width="50" height="50" relative="1" as="geometry">
            <mxPoint x="400" y="293" as="sourcePoint" />
            <mxPoint x="410" y="303" as="targetPoint" />
          </mxGeometry>
        </mxCell>
        <mxCell id="nBgyzqws7G7qOZCPQtSL-199" value="" style="endArrow=classic;html=1;rounded=0;entryX=0.5;entryY=1;entryDx=0;entryDy=0;exitX=0.5;exitY=1;exitDx=0;exitDy=0;" edge="1" parent="1" source="nBgyzqws7G7qOZCPQtSL-142" target="nBgyzqws7G7qOZCPQtSL-175">
          <mxGeometry width="50" height="50" relative="1" as="geometry">
            <mxPoint x="400" y="323" as="sourcePoint" />
            <mxPoint x="410" y="333" as="targetPoint" />
          </mxGeometry>
        </mxCell>
        <mxCell id="nBgyzqws7G7qOZCPQtSL-203" value="" style="shape=cross;whiteSpace=wrap;html=1;fillColor=#60a917;strokeColor=#2D7600;fontColor=#ffffff;" vertex="1" parent="1">
          <mxGeometry x="415" y="270" width="15" height="16.98" as="geometry" />
        </mxCell>
        <mxCell id="nBgyzqws7G7qOZCPQtSL-204" value="" style="shape=cross;whiteSpace=wrap;html=1;fillColor=#60a917;strokeColor=#2D7600;fontColor=#ffffff;" vertex="1" parent="1">
          <mxGeometry x="295" y="238" width="15" height="16.98" as="geometry" />
        </mxCell>
        <mxCell id="nBgyzqws7G7qOZCPQtSL-206" value="" style="endArrow=classic;html=1;rounded=0;entryX=0;entryY=0;entryDx=9;entryDy=16.98;exitX=0;exitY=1;exitDx=0;exitDy=0;entryPerimeter=0;" edge="1" parent="1" source="nBgyzqws7G7qOZCPQtSL-137" target="nBgyzqws7G7qOZCPQtSL-205">
          <mxGeometry width="50" height="50" relative="1" as="geometry">
            <mxPoint x="283" y="277" as="sourcePoint" />
            <mxPoint x="272" y="263" as="targetPoint" />
          </mxGeometry>
        </mxCell>
        <mxCell id="nBgyzqws7G7qOZCPQtSL-205" value="" style="shape=cross;whiteSpace=wrap;html=1;fillColor=#60a917;strokeColor=#2D7600;fontColor=#ffffff;" vertex="1" parent="1">
          <mxGeometry x="265.5" y="251" width="15" height="16.98" as="geometry" />
        </mxCell>
        <mxCell id="nBgyzqws7G7qOZCPQtSL-207" value="" style="endArrow=classic;html=1;rounded=0;exitX=0;exitY=0.5;exitDx=0;exitDy=0;entryX=1;entryY=0;entryDx=0;entryDy=0;" edge="1" parent="1" source="nBgyzqws7G7qOZCPQtSL-151" target="nBgyzqws7G7qOZCPQtSL-175">
          <mxGeometry width="50" height="50" relative="1" as="geometry">
            <mxPoint x="360" y="293" as="sourcePoint" />
            <mxPoint x="410" y="243" as="targetPoint" />
          </mxGeometry>
        </mxCell>
        <mxCell id="nBgyzqws7G7qOZCPQtSL-208" value="" style="endArrow=classic;html=1;rounded=0;exitX=0.348;exitY=0.521;exitDx=0;exitDy=0;entryX=1;entryY=0.5;entryDx=0;entryDy=0;exitPerimeter=0;" edge="1" parent="1" source="nBgyzqws7G7qOZCPQtSL-169" target="nBgyzqws7G7qOZCPQtSL-175">
          <mxGeometry width="50" height="50" relative="1" as="geometry">
            <mxPoint x="451" y="293" as="sourcePoint" />
            <mxPoint x="440" y="308" as="targetPoint" />
          </mxGeometry>
        </mxCell>
        <mxCell id="nBgyzqws7G7qOZCPQtSL-209" value="" style="endArrow=classic;html=1;rounded=0;exitX=0;exitY=0;exitDx=0;exitDy=0;entryX=1;entryY=1;entryDx=0;entryDy=0;" edge="1" parent="1" source="nBgyzqws7G7qOZCPQtSL-168" target="nBgyzqws7G7qOZCPQtSL-175">
          <mxGeometry width="50" height="50" relative="1" as="geometry">
            <mxPoint x="461" y="323" as="sourcePoint" />
            <mxPoint x="450" y="338" as="targetPoint" />
          </mxGeometry>
        </mxCell>
        <mxCell id="nBgyzqws7G7qOZCPQtSL-210" value="" style="endArrow=classic;html=1;rounded=0;exitX=1;exitY=0.5;exitDx=0;exitDy=0;entryX=0.49;entryY=0.678;entryDx=0;entryDy=0;entryPerimeter=0;" edge="1" parent="1" source="nBgyzqws7G7qOZCPQtSL-153" target="nBgyzqws7G7qOZCPQtSL-163">
          <mxGeometry width="50" height="50" relative="1" as="geometry">
            <mxPoint x="331" y="293" as="sourcePoint" />
            <mxPoint x="320" y="308" as="targetPoint" />
          </mxGeometry>
        </mxCell>
        <mxCell id="nBgyzqws7G7qOZCPQtSL-211" value="" style="endArrow=classic;html=1;rounded=0;exitX=0;exitY=0;exitDx=0;exitDy=0;entryX=0;entryY=1;entryDx=0;entryDy=0;" edge="1" parent="1" source="nBgyzqws7G7qOZCPQtSL-152" target="nBgyzqws7G7qOZCPQtSL-163">
          <mxGeometry width="50" height="50" relative="1" as="geometry">
            <mxPoint x="471" y="293" as="sourcePoint" />
            <mxPoint x="460" y="308" as="targetPoint" />
          </mxGeometry>
        </mxCell>
        <mxCell id="nBgyzqws7G7qOZCPQtSL-212" value="" style="endArrow=classic;html=1;rounded=0;exitX=0;exitY=1;exitDx=0;exitDy=0;entryX=0.5;entryY=1;entryDx=0;entryDy=0;" edge="1" parent="1" source="nBgyzqws7G7qOZCPQtSL-162" target="nBgyzqws7G7qOZCPQtSL-163">
          <mxGeometry width="50" height="50" relative="1" as="geometry">
            <mxPoint x="481" y="313" as="sourcePoint" />
            <mxPoint x="470" y="328" as="targetPoint" />
          </mxGeometry>
        </mxCell>
        <mxCell id="nBgyzqws7G7qOZCPQtSL-213" value="" style="endArrow=classic;html=1;rounded=0;exitX=0;exitY=1;exitDx=0;exitDy=0;entryX=0;entryY=0;entryDx=0;entryDy=6.99;entryPerimeter=0;" edge="1" parent="1" source="nBgyzqws7G7qOZCPQtSL-156" target="nBgyzqws7G7qOZCPQtSL-201">
          <mxGeometry width="50" height="50" relative="1" as="geometry">
            <mxPoint x="481" y="333" as="sourcePoint" />
            <mxPoint x="470" y="348" as="targetPoint" />
          </mxGeometry>
        </mxCell>
        <mxCell id="nBgyzqws7G7qOZCPQtSL-214" value="" style="endArrow=classic;html=1;rounded=0;exitX=0;exitY=0.5;exitDx=0;exitDy=0;entryX=1;entryY=1;entryDx=0;entryDy=0;" edge="1" parent="1" source="nBgyzqws7G7qOZCPQtSL-154" target="nBgyzqws7G7qOZCPQtSL-163">
          <mxGeometry width="50" height="50" relative="1" as="geometry">
            <mxPoint x="491" y="343" as="sourcePoint" />
            <mxPoint x="480" y="358" as="targetPoint" />
          </mxGeometry>
        </mxCell>
        <mxCell id="nBgyzqws7G7qOZCPQtSL-215" value="" style="endArrow=classic;html=1;rounded=0;exitX=0;exitY=0.5;exitDx=0;exitDy=0;entryX=1;entryY=1;entryDx=0;entryDy=0;" edge="1" parent="1" source="nBgyzqws7G7qOZCPQtSL-155" target="nBgyzqws7G7qOZCPQtSL-163">
          <mxGeometry width="50" height="50" relative="1" as="geometry">
            <mxPoint x="521" y="333" as="sourcePoint" />
            <mxPoint x="510" y="348" as="targetPoint" />
          </mxGeometry>
        </mxCell>
        <mxCell id="nBgyzqws7G7qOZCPQtSL-201" value="" style="shape=cross;whiteSpace=wrap;html=1;fillColor=#60a917;strokeColor=#2D7600;fontColor=#ffffff;" vertex="1" parent="1">
          <mxGeometry x="469" y="261" width="15" height="16.98" as="geometry" />
        </mxCell>
        <mxCell id="nBgyzqws7G7qOZCPQtSL-216" value="" style="endArrow=classic;html=1;rounded=0;exitX=1;exitY=0.5;exitDx=0;exitDy=0;entryX=0;entryY=0;entryDx=0;entryDy=0;" edge="1" parent="1" source="nBgyzqws7G7qOZCPQtSL-172" target="nBgyzqws7G7qOZCPQtSL-171">
          <mxGeometry width="50" height="50" relative="1" as="geometry">
            <mxPoint x="281" y="303" as="sourcePoint" />
            <mxPoint x="270" y="318" as="targetPoint" />
          </mxGeometry>
        </mxCell>
        <mxCell id="nBgyzqws7G7qOZCPQtSL-217" value="" style="endArrow=classic;html=1;rounded=0;exitX=0.5;exitY=1;exitDx=0;exitDy=0;entryX=0;entryY=1;entryDx=0;entryDy=0;" edge="1" parent="1" source="nBgyzqws7G7qOZCPQtSL-158" target="nBgyzqws7G7qOZCPQtSL-171">
          <mxGeometry width="50" height="50" relative="1" as="geometry">
            <mxPoint x="511" y="283" as="sourcePoint" />
            <mxPoint x="500" y="298" as="targetPoint" />
          </mxGeometry>
        </mxCell>
        <mxCell id="nBgyzqws7G7qOZCPQtSL-218" value="" style="endArrow=classic;html=1;rounded=0;exitX=1;exitY=1;exitDx=0;exitDy=0;entryX=0;entryY=0;entryDx=3;entryDy=6.99;entryPerimeter=0;" edge="1" parent="1" target="nBgyzqws7G7qOZCPQtSL-202">
          <mxGeometry width="50" height="50" relative="1" as="geometry">
            <mxPoint x="528.5355339059327" y="246.51553390593267" as="sourcePoint" />
            <mxPoint x="500" y="338" as="targetPoint" />
          </mxGeometry>
        </mxCell>
        <mxCell id="nBgyzqws7G7qOZCPQtSL-219" value="" style="endArrow=classic;html=1;rounded=0;exitX=0;exitY=1;exitDx=0;exitDy=0;entryX=1;entryY=1;entryDx=0;entryDy=0;" edge="1" parent="1" source="nBgyzqws7G7qOZCPQtSL-160" target="nBgyzqws7G7qOZCPQtSL-171">
          <mxGeometry width="50" height="50" relative="1" as="geometry">
            <mxPoint x="541" y="323" as="sourcePoint" />
            <mxPoint x="530" y="338" as="targetPoint" />
          </mxGeometry>
        </mxCell>
        <mxCell id="nBgyzqws7G7qOZCPQtSL-220" value="" style="endArrow=classic;html=1;rounded=0;exitX=0;exitY=1;exitDx=0;exitDy=0;entryX=0.121;entryY=0.791;entryDx=0;entryDy=0;entryPerimeter=0;" edge="1" parent="1" source="nBgyzqws7G7qOZCPQtSL-161" target="nBgyzqws7G7qOZCPQtSL-202">
          <mxGeometry width="50" height="50" relative="1" as="geometry">
            <mxPoint x="541" y="353" as="sourcePoint" />
            <mxPoint x="530" y="368" as="targetPoint" />
          </mxGeometry>
        </mxCell>
        <mxCell id="nBgyzqws7G7qOZCPQtSL-221" value="" style="endArrow=classic;html=1;rounded=0;exitX=0;exitY=1;exitDx=0;exitDy=0;entryX=0;entryY=1;entryDx=0;entryDy=0;" edge="1" parent="1" source="nBgyzqws7G7qOZCPQtSL-159" target="nBgyzqws7G7qOZCPQtSL-171">
          <mxGeometry width="50" height="50" relative="1" as="geometry">
            <mxPoint x="521" y="333" as="sourcePoint" />
            <mxPoint x="510" y="348" as="targetPoint" />
          </mxGeometry>
        </mxCell>
        <mxCell id="nBgyzqws7G7qOZCPQtSL-202" value="" style="shape=cross;whiteSpace=wrap;html=1;fillColor=#60a917;strokeColor=#2D7600;fontColor=#ffffff;" vertex="1" parent="1">
          <mxGeometry x="527" y="256" width="15" height="16.98" as="geometry" />
        </mxCell>
        <mxCell id="nBgyzqws7G7qOZCPQtSL-223" value="" style="shape=cross;whiteSpace=wrap;html=1;fillColor=#60a917;strokeColor=#2D7600;fontColor=#ffffff;" vertex="1" parent="1">
          <mxGeometry x="356" y="249" width="15" height="16.98" as="geometry" />
        </mxCell>
        <mxCell id="nBgyzqws7G7qOZCPQtSL-225" value="" style="endArrow=classic;html=1;rounded=0;exitX=0;exitY=0.5;exitDx=0;exitDy=0;entryX=0;entryY=0;entryDx=0;entryDy=9.99;entryPerimeter=0;" edge="1" parent="1" target="nBgyzqws7G7qOZCPQtSL-223">
          <mxGeometry width="50" height="50" relative="1" as="geometry">
            <mxPoint x="362" y="242.98000000000002" as="sourcePoint" />
            <mxPoint x="380" y="243" as="targetPoint" />
          </mxGeometry>
        </mxCell>
        <mxCell id="nBgyzqws7G7qOZCPQtSL-226" value="&lt;font face=&quot;Times New Roman&quot;&gt;&lt;span style=&quot;font-size: 13px;&quot;&gt;&amp;nbsp; &amp;nbsp; &amp;nbsp; &amp;nbsp;Centroid of cluster&lt;br&gt;&amp;nbsp;&amp;nbsp;&lt;br&gt;&amp;nbsp; &amp;nbsp; &amp;nbsp; &amp;nbsp;Final CH nearest&amp;nbsp; &amp;nbsp; &amp;nbsp; &amp;nbsp; &amp;nbsp; &amp;nbsp;to centroid&lt;/span&gt;&lt;/font&gt;" style="rounded=0;whiteSpace=wrap;html=1;fillColor=none;strokeColor=none;align=left;" vertex="1" parent="1">
          <mxGeometry x="103" y="231" width="125" height="60" as="geometry" />
        </mxCell>
        <mxCell id="nBgyzqws7G7qOZCPQtSL-227" value="" style="fontColor=#ffffff;verticalAlign=top;verticalLabelPosition=bottom;labelPosition=center;align=center;html=1;outlineConnect=0;fillColor=#e51400;strokeColor=#B20000;gradientDirection=north;strokeWidth=2;shape=mxgraph.networks.radio_tower;" vertex="1" parent="1">
          <mxGeometry x="599" y="228" width="30" height="64.5" as="geometry" />
        </mxCell>
        <mxCell id="nBgyzqws7G7qOZCPQtSL-228" value="&lt;font face=&quot;Times New Roman&quot;&gt;Base Station&lt;/font&gt;" style="rounded=0;whiteSpace=wrap;html=1;strokeColor=none;fillColor=none;" vertex="1" parent="1">
          <mxGeometry x="575" y="295.25" width="68" height="10" as="geometry" />
        </mxCell>
        <mxCell id="nBgyzqws7G7qOZCPQtSL-229" value="" style="shape=cross;whiteSpace=wrap;html=1;fillColor=#60a917;strokeColor=#2D7600;fontColor=#ffffff;" vertex="1" parent="1">
          <mxGeometry x="105" y="230" width="15" height="16.98" as="geometry" />
        </mxCell>
        <mxCell id="nBgyzqws7G7qOZCPQtSL-235" value="" style="ellipse;whiteSpace=wrap;html=1;aspect=fixed;fillColor=#e51400;fontColor=#ffffff;strokeColor=#B20000;" vertex="1" parent="1">
          <mxGeometry x="107.5" y="270.49" width="10" height="10" as="geometry" />
        </mxCell>
        <mxCell id="nBgyzqws7G7qOZCPQtSL-237" value="" style="rounded=0;whiteSpace=wrap;html=1;fillColor=#f5f5f5;strokeColor=#666666;fontColor=#333333;" vertex="1" parent="1">
          <mxGeometry x="169" y="320" width="326" height="60" as="geometry" />
        </mxCell>
        <mxCell id="nBgyzqws7G7qOZCPQtSL-238" value="" style="ellipse;whiteSpace=wrap;html=1;aspect=fixed;" vertex="1" parent="1">
          <mxGeometry x="215" y="325" width="10" height="10" as="geometry" />
        </mxCell>
        <mxCell id="nBgyzqws7G7qOZCPQtSL-239" value="" style="ellipse;whiteSpace=wrap;html=1;aspect=fixed;" vertex="1" parent="1">
          <mxGeometry x="215" y="355" width="10" height="10" as="geometry" />
        </mxCell>
        <mxCell id="nBgyzqws7G7qOZCPQtSL-240" value="" style="ellipse;whiteSpace=wrap;html=1;aspect=fixed;" vertex="1" parent="1">
          <mxGeometry x="265" y="340" width="10" height="10" as="geometry" />
        </mxCell>
        <mxCell id="nBgyzqws7G7qOZCPQtSL-241" value="" style="ellipse;whiteSpace=wrap;html=1;aspect=fixed;" vertex="1" parent="1">
          <mxGeometry x="295" y="325" width="10" height="10" as="geometry" />
        </mxCell>
        <mxCell id="nBgyzqws7G7qOZCPQtSL-242" value="" style="ellipse;whiteSpace=wrap;html=1;aspect=fixed;" vertex="1" parent="1">
          <mxGeometry x="185" y="325" width="10" height="10" as="geometry" />
        </mxCell>
        <mxCell id="nBgyzqws7G7qOZCPQtSL-243" value="" style="ellipse;whiteSpace=wrap;html=1;aspect=fixed;" vertex="1" parent="1">
          <mxGeometry x="295" y="355" width="10" height="10" as="geometry" />
        </mxCell>
        <mxCell id="nBgyzqws7G7qOZCPQtSL-244" value="" style="ellipse;whiteSpace=wrap;html=1;aspect=fixed;" vertex="1" parent="1">
          <mxGeometry x="315" y="340" width="10" height="10" as="geometry" />
        </mxCell>
        <mxCell id="nBgyzqws7G7qOZCPQtSL-245" value="" style="ellipse;whiteSpace=wrap;html=1;aspect=fixed;" vertex="1" parent="1">
          <mxGeometry x="195" y="345" width="10" height="10" as="geometry" />
        </mxCell>
        <mxCell id="nBgyzqws7G7qOZCPQtSL-246" value="" style="ellipse;whiteSpace=wrap;html=1;aspect=fixed;" vertex="1" parent="1">
          <mxGeometry x="245" y="360" width="10" height="10" as="geometry" />
        </mxCell>
        <mxCell id="nBgyzqws7G7qOZCPQtSL-247" value="" style="ellipse;whiteSpace=wrap;html=1;aspect=fixed;fillColor=#e51400;fontColor=#ffffff;strokeColor=#B20000;" vertex="1" parent="1">
          <mxGeometry x="235" y="336" width="10" height="10" as="geometry" />
        </mxCell>
        <mxCell id="nBgyzqws7G7qOZCPQtSL-248" value="" style="ellipse;whiteSpace=wrap;html=1;aspect=fixed;" vertex="1" parent="1">
          <mxGeometry x="200" y="366" width="10" height="10" as="geometry" />
        </mxCell>
        <mxCell id="nBgyzqws7G7qOZCPQtSL-249" value="" style="ellipse;whiteSpace=wrap;html=1;aspect=fixed;" vertex="1" parent="1">
          <mxGeometry x="175" y="350" width="10" height="10" as="geometry" />
        </mxCell>
        <mxCell id="nBgyzqws7G7qOZCPQtSL-250" value="" style="ellipse;whiteSpace=wrap;html=1;aspect=fixed;" vertex="1" parent="1">
          <mxGeometry x="325" y="360" width="10" height="10" as="geometry" />
        </mxCell>
        <mxCell id="nBgyzqws7G7qOZCPQtSL-251" value="" style="ellipse;whiteSpace=wrap;html=1;aspect=fixed;" vertex="1" parent="1">
          <mxGeometry x="335" y="330" width="10" height="10" as="geometry" />
        </mxCell>
        <mxCell id="nBgyzqws7G7qOZCPQtSL-252" value="" style="ellipse;whiteSpace=wrap;html=1;aspect=fixed;fillColor=#e51400;fontColor=#ffffff;strokeColor=#B20000;" vertex="1" parent="1">
          <mxGeometry x="283" y="344" width="10" height="10" as="geometry" />
        </mxCell>
        <mxCell id="nBgyzqws7G7qOZCPQtSL-253" value="" style="ellipse;whiteSpace=wrap;html=1;aspect=fixed;" vertex="1" parent="1">
          <mxGeometry x="365" y="330" width="10" height="10" as="geometry" />
        </mxCell>
        <mxCell id="nBgyzqws7G7qOZCPQtSL-254" value="" style="ellipse;whiteSpace=wrap;html=1;aspect=fixed;" vertex="1" parent="1">
          <mxGeometry x="388" y="366" width="10" height="10" as="geometry" />
        </mxCell>
        <mxCell id="nBgyzqws7G7qOZCPQtSL-255" value="" style="ellipse;whiteSpace=wrap;html=1;aspect=fixed;" vertex="1" parent="1">
          <mxGeometry x="385" y="340" width="10" height="10" as="geometry" />
        </mxCell>
        <mxCell id="nBgyzqws7G7qOZCPQtSL-256" value="" style="ellipse;whiteSpace=wrap;html=1;aspect=fixed;" vertex="1" parent="1">
          <mxGeometry x="415" y="340" width="10" height="10" as="geometry" />
        </mxCell>
        <mxCell id="nBgyzqws7G7qOZCPQtSL-257" value="" style="ellipse;whiteSpace=wrap;html=1;aspect=fixed;" vertex="1" parent="1">
          <mxGeometry x="425" y="362" width="10" height="10" as="geometry" />
        </mxCell>
        <mxCell id="nBgyzqws7G7qOZCPQtSL-258" value="" style="ellipse;whiteSpace=wrap;html=1;aspect=fixed;" vertex="1" parent="1">
          <mxGeometry x="405" y="327" width="10" height="10" as="geometry" />
        </mxCell>
        <mxCell id="nBgyzqws7G7qOZCPQtSL-259" value="" style="ellipse;whiteSpace=wrap;html=1;aspect=fixed;" vertex="1" parent="1">
          <mxGeometry x="444" y="342" width="10" height="10" as="geometry" />
        </mxCell>
        <mxCell id="nBgyzqws7G7qOZCPQtSL-260" value="" style="ellipse;whiteSpace=wrap;html=1;aspect=fixed;" vertex="1" parent="1">
          <mxGeometry x="443" y="356" width="10" height="10" as="geometry" />
        </mxCell>
        <mxCell id="nBgyzqws7G7qOZCPQtSL-261" value="" style="ellipse;whiteSpace=wrap;html=1;aspect=fixed;" vertex="1" parent="1">
          <mxGeometry x="472" y="358" width="10" height="10" as="geometry" />
        </mxCell>
        <mxCell id="nBgyzqws7G7qOZCPQtSL-262" value="" style="ellipse;whiteSpace=wrap;html=1;aspect=fixed;" vertex="1" parent="1">
          <mxGeometry x="475" y="332" width="10" height="10" as="geometry" />
        </mxCell>
        <mxCell id="nBgyzqws7G7qOZCPQtSL-263" value="" style="ellipse;whiteSpace=wrap;html=1;aspect=fixed;" vertex="1" parent="1">
          <mxGeometry x="475" y="346" width="10" height="10" as="geometry" />
        </mxCell>
        <mxCell id="nBgyzqws7G7qOZCPQtSL-264" value="" style="ellipse;whiteSpace=wrap;html=1;aspect=fixed;" vertex="1" parent="1">
          <mxGeometry x="408" y="366" width="10" height="10" as="geometry" />
        </mxCell>
        <mxCell id="nBgyzqws7G7qOZCPQtSL-265" value="" style="ellipse;whiteSpace=wrap;html=1;aspect=fixed;fillColor=#e51400;fontColor=#ffffff;strokeColor=#B20000;" vertex="1" parent="1">
          <mxGeometry x="395" y="353" width="10" height="10" as="geometry" />
        </mxCell>
        <mxCell id="nBgyzqws7G7qOZCPQtSL-266" value="" style="ellipse;whiteSpace=wrap;html=1;aspect=fixed;" vertex="1" parent="1">
          <mxGeometry x="330" y="345" width="10" height="10" as="geometry" />
        </mxCell>
        <mxCell id="nBgyzqws7G7qOZCPQtSL-267" value="" style="ellipse;whiteSpace=wrap;html=1;aspect=fixed;" vertex="1" parent="1">
          <mxGeometry x="273" y="360" width="10" height="10" as="geometry" />
        </mxCell>
        <mxCell id="nBgyzqws7G7qOZCPQtSL-268" value="" style="ellipse;whiteSpace=wrap;html=1;aspect=fixed;" vertex="1" parent="1">
          <mxGeometry x="273" y="325" width="10" height="10" as="geometry" />
        </mxCell>
        <mxCell id="nBgyzqws7G7qOZCPQtSL-269" value="" style="ellipse;whiteSpace=wrap;html=1;aspect=fixed;" vertex="1" parent="1">
          <mxGeometry x="235" y="350" width="10" height="10" as="geometry" />
        </mxCell>
        <mxCell id="nBgyzqws7G7qOZCPQtSL-270" value="" style="ellipse;whiteSpace=wrap;html=1;aspect=fixed;" vertex="1" parent="1">
          <mxGeometry x="365" y="360" width="10" height="10" as="geometry" />
        </mxCell>
        <mxCell id="nBgyzqws7G7qOZCPQtSL-271" value="" style="ellipse;whiteSpace=wrap;html=1;aspect=fixed;" vertex="1" parent="1">
          <mxGeometry x="365" y="346" width="10" height="10" as="geometry" />
        </mxCell>
        <mxCell id="nBgyzqws7G7qOZCPQtSL-272" value="" style="ellipse;whiteSpace=wrap;html=1;aspect=fixed;" vertex="1" parent="1">
          <mxGeometry x="453" y="325" width="10" height="10" as="geometry" />
        </mxCell>
        <mxCell id="nBgyzqws7G7qOZCPQtSL-273" value="" style="ellipse;whiteSpace=wrap;html=1;aspect=fixed;fillColor=#e51400;fontColor=#ffffff;strokeColor=#B20000;" vertex="1" parent="1">
          <mxGeometry x="458.5" y="348" width="10" height="10" as="geometry" />
        </mxCell>
        <mxCell id="nBgyzqws7G7qOZCPQtSL-274" value="" style="ellipse;whiteSpace=wrap;html=1;aspect=fixed;" vertex="1" parent="1">
          <mxGeometry x="434" y="334" width="10" height="10" as="geometry" />
        </mxCell>
        <mxCell id="nBgyzqws7G7qOZCPQtSL-275" value="" style="ellipse;whiteSpace=wrap;html=1;aspect=fixed;" vertex="1" parent="1">
          <mxGeometry x="320" y="327" width="10" height="10" as="geometry" />
        </mxCell>
        <mxCell id="nBgyzqws7G7qOZCPQtSL-276" value="" style="ellipse;whiteSpace=wrap;html=1;aspect=fixed;" vertex="1" parent="1">
          <mxGeometry x="247" y="324" width="10" height="10" as="geometry" />
        </mxCell>
        <mxCell id="nBgyzqws7G7qOZCPQtSL-277" value="" style="ellipse;whiteSpace=wrap;html=1;aspect=fixed;fillColor=#e51400;fontColor=#ffffff;strokeColor=#B20000;" vertex="1" parent="1">
          <mxGeometry x="345" y="349" width="10" height="10" as="geometry" />
        </mxCell>
        <mxCell id="nBgyzqws7G7qOZCPQtSL-282" value="" style="endArrow=classic;html=1;rounded=0;exitX=0.5;exitY=1;exitDx=0;exitDy=0;" edge="1" parent="1" source="nBgyzqws7G7qOZCPQtSL-242">
          <mxGeometry width="50" height="50" relative="1" as="geometry">
            <mxPoint x="223" y="370.02" as="sourcePoint" />
            <mxPoint x="230" y="340" as="targetPoint" />
          </mxGeometry>
        </mxCell>
        <mxCell id="nBgyzqws7G7qOZCPQtSL-283" value="" style="endArrow=classic;html=1;rounded=0;exitX=0.5;exitY=1;exitDx=0;exitDy=0;" edge="1" parent="1" source="nBgyzqws7G7qOZCPQtSL-249">
          <mxGeometry width="50" height="50" relative="1" as="geometry">
            <mxPoint x="203" y="390.02" as="sourcePoint" />
            <mxPoint x="230" y="340" as="targetPoint" />
          </mxGeometry>
        </mxCell>
        <mxCell id="nBgyzqws7G7qOZCPQtSL-286" value="" style="endArrow=classic;html=1;rounded=0;entryX=0;entryY=1;entryDx=0;entryDy=0;exitX=1;exitY=0;exitDx=0;exitDy=0;" edge="1" parent="1" source="nBgyzqws7G7qOZCPQtSL-238" target="nBgyzqws7G7qOZCPQtSL-247">
          <mxGeometry width="50" height="50" relative="1" as="geometry">
            <mxPoint x="193" y="390.02" as="sourcePoint" />
            <mxPoint x="203" y="400.02" as="targetPoint" />
          </mxGeometry>
        </mxCell>
        <mxCell id="nBgyzqws7G7qOZCPQtSL-287" value="" style="endArrow=classic;html=1;rounded=0;entryX=0.5;entryY=1;entryDx=0;entryDy=0;exitX=0.5;exitY=1;exitDx=0;exitDy=0;" edge="1" parent="1" source="nBgyzqws7G7qOZCPQtSL-269" target="nBgyzqws7G7qOZCPQtSL-247">
          <mxGeometry width="50" height="50" relative="1" as="geometry">
            <mxPoint x="253" y="460.02" as="sourcePoint" />
            <mxPoint x="263" y="470.02" as="targetPoint" />
          </mxGeometry>
        </mxCell>
        <mxCell id="nBgyzqws7G7qOZCPQtSL-288" value="" style="endArrow=classic;html=1;rounded=0;entryX=0.5;entryY=1;entryDx=0;entryDy=0;exitX=0.5;exitY=1;exitDx=0;exitDy=0;" edge="1" parent="1">
          <mxGeometry width="50" height="50" relative="1" as="geometry">
            <mxPoint x="255" y="366" as="sourcePoint" />
            <mxPoint x="245" y="341" as="targetPoint" />
          </mxGeometry>
        </mxCell>
        <mxCell id="nBgyzqws7G7qOZCPQtSL-289" value="" style="endArrow=classic;html=1;rounded=0;entryX=0.5;entryY=1;entryDx=0;entryDy=0;exitX=0.5;exitY=0;exitDx=0;exitDy=0;" edge="1" parent="1">
          <mxGeometry width="50" height="50" relative="1" as="geometry">
            <mxPoint x="250" y="324" as="sourcePoint" />
            <mxPoint x="237" y="341" as="targetPoint" />
          </mxGeometry>
        </mxCell>
        <mxCell id="nBgyzqws7G7qOZCPQtSL-290" value="" style="endArrow=classic;html=1;rounded=0;entryX=0;entryY=0;entryDx=0;entryDy=0;exitX=0.5;exitY=0;exitDx=0;exitDy=0;" edge="1" parent="1">
          <mxGeometry width="50" height="50" relative="1" as="geometry">
            <mxPoint x="281" y="325" as="sourcePoint" />
            <mxPoint x="287.46446609406735" y="345.46446609406735" as="targetPoint" />
          </mxGeometry>
        </mxCell>
        <mxCell id="nBgyzqws7G7qOZCPQtSL-291" value="" style="endArrow=classic;html=1;rounded=0;entryX=0.5;entryY=1;entryDx=0;entryDy=0;exitX=0.5;exitY=1;exitDx=0;exitDy=0;" edge="1" parent="1" source="nBgyzqws7G7qOZCPQtSL-240" target="nBgyzqws7G7qOZCPQtSL-252">
          <mxGeometry width="50" height="50" relative="1" as="geometry">
            <mxPoint x="303" y="420.02" as="sourcePoint" />
            <mxPoint x="313" y="430.02" as="targetPoint" />
          </mxGeometry>
        </mxCell>
        <mxCell id="nBgyzqws7G7qOZCPQtSL-292" value="" style="endArrow=classic;html=1;rounded=0;exitX=0;exitY=1;exitDx=0;exitDy=0;" edge="1" parent="1">
          <mxGeometry width="50" height="50" relative="1" as="geometry">
            <mxPoint x="281.46446609406735" y="368.53553390593265" as="sourcePoint" />
            <mxPoint x="293" y="354.02" as="targetPoint" />
          </mxGeometry>
        </mxCell>
        <mxCell id="nBgyzqws7G7qOZCPQtSL-293" value="" style="endArrow=classic;html=1;rounded=0;entryX=1;entryY=0;entryDx=0;entryDy=0;exitX=0;exitY=1;exitDx=0;exitDy=0;" edge="1" parent="1" source="nBgyzqws7G7qOZCPQtSL-243" target="nBgyzqws7G7qOZCPQtSL-252">
          <mxGeometry width="50" height="50" relative="1" as="geometry">
            <mxPoint x="313" y="420.02" as="sourcePoint" />
            <mxPoint x="323" y="430.02" as="targetPoint" />
          </mxGeometry>
        </mxCell>
        <mxCell id="nBgyzqws7G7qOZCPQtSL-294" value="" style="endArrow=classic;html=1;rounded=0;entryX=0.5;entryY=1;entryDx=0;entryDy=0;exitX=0;exitY=0.5;exitDx=0;exitDy=0;" edge="1" parent="1" source="nBgyzqws7G7qOZCPQtSL-250" target="nBgyzqws7G7qOZCPQtSL-277">
          <mxGeometry width="50" height="50" relative="1" as="geometry">
            <mxPoint x="323" y="410.02" as="sourcePoint" />
            <mxPoint x="333" y="420.02" as="targetPoint" />
          </mxGeometry>
        </mxCell>
        <mxCell id="nBgyzqws7G7qOZCPQtSL-295" value="" style="endArrow=classic;html=1;rounded=0;exitX=1;exitY=0.5;exitDx=0;exitDy=0;" edge="1" parent="1" source="nBgyzqws7G7qOZCPQtSL-251">
          <mxGeometry width="50" height="50" relative="1" as="geometry">
            <mxPoint x="363" y="410.02" as="sourcePoint" />
            <mxPoint x="353" y="350.02" as="targetPoint" />
          </mxGeometry>
        </mxCell>
        <mxCell id="nBgyzqws7G7qOZCPQtSL-296" value="" style="endArrow=classic;html=1;rounded=0;entryX=0;entryY=0;entryDx=0;entryDy=0;exitX=0.5;exitY=1;exitDx=0;exitDy=0;" edge="1" parent="1" source="nBgyzqws7G7qOZCPQtSL-275" target="nBgyzqws7G7qOZCPQtSL-277">
          <mxGeometry width="50" height="50" relative="1" as="geometry">
            <mxPoint x="333" y="380.02" as="sourcePoint" />
            <mxPoint x="343" y="390.02" as="targetPoint" />
          </mxGeometry>
        </mxCell>
        <mxCell id="nBgyzqws7G7qOZCPQtSL-297" value="" style="endArrow=classic;html=1;rounded=0;entryX=0.5;entryY=1;entryDx=0;entryDy=0;exitX=0.5;exitY=1;exitDx=0;exitDy=0;" edge="1" parent="1" source="nBgyzqws7G7qOZCPQtSL-244" target="nBgyzqws7G7qOZCPQtSL-277">
          <mxGeometry width="50" height="50" relative="1" as="geometry">
            <mxPoint x="333" y="410.02" as="sourcePoint" />
            <mxPoint x="343" y="420.02" as="targetPoint" />
          </mxGeometry>
        </mxCell>
        <mxCell id="nBgyzqws7G7qOZCPQtSL-298" value="" style="shape=cross;whiteSpace=wrap;html=1;fillColor=#60a917;strokeColor=#2D7600;fontColor=#ffffff;" vertex="1" parent="1">
          <mxGeometry x="348" y="357.02" width="15" height="16.98" as="geometry" />
        </mxCell>
        <mxCell id="nBgyzqws7G7qOZCPQtSL-299" value="" style="shape=cross;whiteSpace=wrap;html=1;fillColor=#60a917;strokeColor=#2D7600;fontColor=#ffffff;" vertex="1" parent="1">
          <mxGeometry x="228" y="325.02" width="15" height="16.98" as="geometry" />
        </mxCell>
        <mxCell id="nBgyzqws7G7qOZCPQtSL-300" value="" style="endArrow=classic;html=1;rounded=0;exitX=0;exitY=1;exitDx=0;exitDy=0;" edge="1" parent="1" source="nBgyzqws7G7qOZCPQtSL-239" target="nBgyzqws7G7qOZCPQtSL-247">
          <mxGeometry width="50" height="50" relative="1" as="geometry">
            <mxPoint x="216" y="364.02" as="sourcePoint" />
            <mxPoint x="205" y="350.02" as="targetPoint" />
          </mxGeometry>
        </mxCell>
        <mxCell id="nBgyzqws7G7qOZCPQtSL-301" value="" style="shape=cross;whiteSpace=wrap;html=1;fillColor=#60a917;strokeColor=#2D7600;fontColor=#ffffff;" vertex="1" parent="1">
          <mxGeometry x="198.5" y="338.02" width="15" height="16.98" as="geometry" />
        </mxCell>
        <mxCell id="nBgyzqws7G7qOZCPQtSL-302" value="" style="endArrow=classic;html=1;rounded=0;exitX=0;exitY=0.5;exitDx=0;exitDy=0;entryX=1;entryY=0;entryDx=0;entryDy=0;" edge="1" parent="1" source="nBgyzqws7G7qOZCPQtSL-253" target="nBgyzqws7G7qOZCPQtSL-277">
          <mxGeometry width="50" height="50" relative="1" as="geometry">
            <mxPoint x="293" y="380.02" as="sourcePoint" />
            <mxPoint x="343" y="330.02" as="targetPoint" />
          </mxGeometry>
        </mxCell>
        <mxCell id="nBgyzqws7G7qOZCPQtSL-303" value="" style="endArrow=classic;html=1;rounded=0;exitX=0.348;exitY=0.521;exitDx=0;exitDy=0;entryX=1;entryY=0.5;entryDx=0;entryDy=0;exitPerimeter=0;" edge="1" parent="1" source="nBgyzqws7G7qOZCPQtSL-271" target="nBgyzqws7G7qOZCPQtSL-277">
          <mxGeometry width="50" height="50" relative="1" as="geometry">
            <mxPoint x="384" y="380.02" as="sourcePoint" />
            <mxPoint x="373" y="395.02" as="targetPoint" />
          </mxGeometry>
        </mxCell>
        <mxCell id="nBgyzqws7G7qOZCPQtSL-304" value="" style="endArrow=classic;html=1;rounded=0;exitX=0;exitY=0;exitDx=0;exitDy=0;entryX=1;entryY=1;entryDx=0;entryDy=0;" edge="1" parent="1" source="nBgyzqws7G7qOZCPQtSL-270" target="nBgyzqws7G7qOZCPQtSL-277">
          <mxGeometry width="50" height="50" relative="1" as="geometry">
            <mxPoint x="394" y="410.02" as="sourcePoint" />
            <mxPoint x="383" y="425.02" as="targetPoint" />
          </mxGeometry>
        </mxCell>
        <mxCell id="nBgyzqws7G7qOZCPQtSL-305" value="" style="endArrow=classic;html=1;rounded=0;exitX=1;exitY=0.5;exitDx=0;exitDy=0;entryX=0.49;entryY=0.678;entryDx=0;entryDy=0;entryPerimeter=0;" edge="1" parent="1" source="nBgyzqws7G7qOZCPQtSL-255" target="nBgyzqws7G7qOZCPQtSL-265">
          <mxGeometry width="50" height="50" relative="1" as="geometry">
            <mxPoint x="264" y="380.02" as="sourcePoint" />
            <mxPoint x="253" y="395.02" as="targetPoint" />
          </mxGeometry>
        </mxCell>
        <mxCell id="nBgyzqws7G7qOZCPQtSL-306" value="" style="endArrow=classic;html=1;rounded=0;exitX=0;exitY=0;exitDx=0;exitDy=0;entryX=0;entryY=1;entryDx=0;entryDy=0;" edge="1" parent="1" source="nBgyzqws7G7qOZCPQtSL-254" target="nBgyzqws7G7qOZCPQtSL-265">
          <mxGeometry width="50" height="50" relative="1" as="geometry">
            <mxPoint x="404" y="380.02" as="sourcePoint" />
            <mxPoint x="393" y="395.02" as="targetPoint" />
          </mxGeometry>
        </mxCell>
        <mxCell id="nBgyzqws7G7qOZCPQtSL-307" value="" style="endArrow=classic;html=1;rounded=0;exitX=0;exitY=1;exitDx=0;exitDy=0;entryX=0.5;entryY=1;entryDx=0;entryDy=0;" edge="1" parent="1" source="nBgyzqws7G7qOZCPQtSL-264" target="nBgyzqws7G7qOZCPQtSL-265">
          <mxGeometry width="50" height="50" relative="1" as="geometry">
            <mxPoint x="414" y="400.02" as="sourcePoint" />
            <mxPoint x="403" y="415.02" as="targetPoint" />
          </mxGeometry>
        </mxCell>
        <mxCell id="nBgyzqws7G7qOZCPQtSL-308" value="" style="endArrow=classic;html=1;rounded=0;exitX=0;exitY=1;exitDx=0;exitDy=0;entryX=0;entryY=0;entryDx=0;entryDy=6.99;entryPerimeter=0;" edge="1" parent="1" source="nBgyzqws7G7qOZCPQtSL-258" target="nBgyzqws7G7qOZCPQtSL-311">
          <mxGeometry width="50" height="50" relative="1" as="geometry">
            <mxPoint x="414" y="420.02" as="sourcePoint" />
            <mxPoint x="403" y="435.02" as="targetPoint" />
          </mxGeometry>
        </mxCell>
        <mxCell id="nBgyzqws7G7qOZCPQtSL-309" value="" style="endArrow=classic;html=1;rounded=0;exitX=0;exitY=0.5;exitDx=0;exitDy=0;entryX=1;entryY=1;entryDx=0;entryDy=0;" edge="1" parent="1" source="nBgyzqws7G7qOZCPQtSL-256" target="nBgyzqws7G7qOZCPQtSL-265">
          <mxGeometry width="50" height="50" relative="1" as="geometry">
            <mxPoint x="424" y="430.02" as="sourcePoint" />
            <mxPoint x="413" y="445.02" as="targetPoint" />
          </mxGeometry>
        </mxCell>
        <mxCell id="nBgyzqws7G7qOZCPQtSL-310" value="" style="endArrow=classic;html=1;rounded=0;exitX=0;exitY=0.5;exitDx=0;exitDy=0;entryX=1;entryY=1;entryDx=0;entryDy=0;" edge="1" parent="1" source="nBgyzqws7G7qOZCPQtSL-257" target="nBgyzqws7G7qOZCPQtSL-265">
          <mxGeometry width="50" height="50" relative="1" as="geometry">
            <mxPoint x="454" y="420.02" as="sourcePoint" />
            <mxPoint x="443" y="435.02" as="targetPoint" />
          </mxGeometry>
        </mxCell>
        <mxCell id="nBgyzqws7G7qOZCPQtSL-311" value="" style="shape=cross;whiteSpace=wrap;html=1;fillColor=#60a917;strokeColor=#2D7600;fontColor=#ffffff;" vertex="1" parent="1">
          <mxGeometry x="402" y="348.02" width="15" height="16.98" as="geometry" />
        </mxCell>
        <mxCell id="nBgyzqws7G7qOZCPQtSL-312" value="" style="endArrow=classic;html=1;rounded=0;exitX=1;exitY=0.5;exitDx=0;exitDy=0;entryX=0;entryY=0;entryDx=0;entryDy=0;" edge="1" parent="1" source="nBgyzqws7G7qOZCPQtSL-274" target="nBgyzqws7G7qOZCPQtSL-273">
          <mxGeometry width="50" height="50" relative="1" as="geometry">
            <mxPoint x="214" y="390.02" as="sourcePoint" />
            <mxPoint x="203" y="405.02" as="targetPoint" />
          </mxGeometry>
        </mxCell>
        <mxCell id="nBgyzqws7G7qOZCPQtSL-313" value="" style="endArrow=classic;html=1;rounded=0;exitX=0.5;exitY=1;exitDx=0;exitDy=0;entryX=0;entryY=1;entryDx=0;entryDy=0;" edge="1" parent="1" source="nBgyzqws7G7qOZCPQtSL-260" target="nBgyzqws7G7qOZCPQtSL-273">
          <mxGeometry width="50" height="50" relative="1" as="geometry">
            <mxPoint x="444" y="370.02" as="sourcePoint" />
            <mxPoint x="433" y="385.02" as="targetPoint" />
          </mxGeometry>
        </mxCell>
        <mxCell id="nBgyzqws7G7qOZCPQtSL-314" value="" style="endArrow=classic;html=1;rounded=0;exitX=1;exitY=1;exitDx=0;exitDy=0;entryX=0;entryY=0;entryDx=3;entryDy=6.99;entryPerimeter=0;" edge="1" parent="1" source="nBgyzqws7G7qOZCPQtSL-272" target="nBgyzqws7G7qOZCPQtSL-318">
          <mxGeometry width="50" height="50" relative="1" as="geometry">
            <mxPoint x="444" y="410.02" as="sourcePoint" />
            <mxPoint x="433" y="425.02" as="targetPoint" />
          </mxGeometry>
        </mxCell>
        <mxCell id="nBgyzqws7G7qOZCPQtSL-315" value="" style="endArrow=classic;html=1;rounded=0;exitX=0;exitY=1;exitDx=0;exitDy=0;entryX=1;entryY=1;entryDx=0;entryDy=0;" edge="1" parent="1" source="nBgyzqws7G7qOZCPQtSL-262" target="nBgyzqws7G7qOZCPQtSL-273">
          <mxGeometry width="50" height="50" relative="1" as="geometry">
            <mxPoint x="474" y="410.02" as="sourcePoint" />
            <mxPoint x="463" y="425.02" as="targetPoint" />
          </mxGeometry>
        </mxCell>
        <mxCell id="nBgyzqws7G7qOZCPQtSL-316" value="" style="endArrow=classic;html=1;rounded=0;exitX=0;exitY=1;exitDx=0;exitDy=0;entryX=0.121;entryY=0.791;entryDx=0;entryDy=0;entryPerimeter=0;" edge="1" parent="1" source="nBgyzqws7G7qOZCPQtSL-263" target="nBgyzqws7G7qOZCPQtSL-318">
          <mxGeometry width="50" height="50" relative="1" as="geometry">
            <mxPoint x="474" y="440.02" as="sourcePoint" />
            <mxPoint x="463" y="455.02" as="targetPoint" />
          </mxGeometry>
        </mxCell>
        <mxCell id="nBgyzqws7G7qOZCPQtSL-317" value="" style="endArrow=classic;html=1;rounded=0;exitX=0;exitY=1;exitDx=0;exitDy=0;entryX=0;entryY=1;entryDx=0;entryDy=0;" edge="1" parent="1" source="nBgyzqws7G7qOZCPQtSL-261" target="nBgyzqws7G7qOZCPQtSL-273">
          <mxGeometry width="50" height="50" relative="1" as="geometry">
            <mxPoint x="454" y="420.02" as="sourcePoint" />
            <mxPoint x="443" y="435.02" as="targetPoint" />
          </mxGeometry>
        </mxCell>
        <mxCell id="nBgyzqws7G7qOZCPQtSL-318" value="" style="shape=cross;whiteSpace=wrap;html=1;fillColor=#60a917;strokeColor=#2D7600;fontColor=#ffffff;" vertex="1" parent="1">
          <mxGeometry x="460" y="343.02" width="15" height="16.98" as="geometry" />
        </mxCell>
        <mxCell id="nBgyzqws7G7qOZCPQtSL-319" value="" style="shape=cross;whiteSpace=wrap;html=1;fillColor=#60a917;strokeColor=#2D7600;fontColor=#ffffff;" vertex="1" parent="1">
          <mxGeometry x="289" y="336.02" width="15" height="16.98" as="geometry" />
        </mxCell>
        <mxCell id="nBgyzqws7G7qOZCPQtSL-320" value="" style="endArrow=classic;html=1;rounded=0;exitX=0;exitY=0.5;exitDx=0;exitDy=0;entryX=0;entryY=0;entryDx=0;entryDy=9.99;entryPerimeter=0;" edge="1" parent="1" source="nBgyzqws7G7qOZCPQtSL-241" target="nBgyzqws7G7qOZCPQtSL-319">
          <mxGeometry width="50" height="50" relative="1" as="geometry">
            <mxPoint x="263" y="380.02" as="sourcePoint" />
            <mxPoint x="313" y="330.02" as="targetPoint" />
          </mxGeometry>
        </mxCell>
        <mxCell id="nBgyzqws7G7qOZCPQtSL-321" value="" style="fontColor=#ffffff;verticalAlign=top;verticalLabelPosition=bottom;labelPosition=center;align=center;html=1;outlineConnect=0;fillColor=#e51400;strokeColor=#B20000;gradientDirection=north;strokeWidth=2;shape=mxgraph.networks.radio_tower;" vertex="1" parent="1">
          <mxGeometry x="600" y="317.02" width="30" height="64.5" as="geometry" />
        </mxCell>
        <mxCell id="nBgyzqws7G7qOZCPQtSL-322" value="&lt;font face=&quot;Times New Roman&quot;&gt;Base Station&lt;/font&gt;" style="rounded=0;whiteSpace=wrap;html=1;strokeColor=none;fillColor=none;" vertex="1" parent="1">
          <mxGeometry x="575" y="385" width="68" height="10" as="geometry" />
        </mxCell>
        <mxCell id="nBgyzqws7G7qOZCPQtSL-338" value="" style="endArrow=classic;html=1;rounded=0;entryX=0;entryY=0;entryDx=9;entryDy=16.98;exitX=0.5;exitY=0;exitDx=0;exitDy=0;entryPerimeter=0;" edge="1" parent="1" source="nBgyzqws7G7qOZCPQtSL-248" target="nBgyzqws7G7qOZCPQtSL-299">
          <mxGeometry width="50" height="50" relative="1" as="geometry">
            <mxPoint x="205" y="366" as="sourcePoint" />
            <mxPoint x="173.25126265847086" y="379.74873734152914" as="targetPoint" />
          </mxGeometry>
        </mxCell>
        <mxCell id="nBgyzqws7G7qOZCPQtSL-341" value="" style="shape=image;html=1;verticalAlign=top;verticalLabelPosition=bottom;labelBackgroundColor=#ffffff;imageAspect=0;aspect=fixed;image=https://icons.diagrams.net/icon-cache1/Phosphor_Duotone_Vol_4-2933/robot-duotone-1373.svg" vertex="1" parent="1">
          <mxGeometry x="517" y="315.75" width="62.5" height="62.5" as="geometry" />
        </mxCell>
        <mxCell id="nBgyzqws7G7qOZCPQtSL-347" value="" style="endArrow=classic;startArrow=classic;html=1;rounded=0;entryX=0;entryY=0.25;entryDx=0;entryDy=0;exitX=1;exitY=0.25;exitDx=0;exitDy=0;" edge="1" parent="1" source="nBgyzqws7G7qOZCPQtSL-237">
          <mxGeometry width="50" height="50" relative="1" as="geometry">
            <mxPoint x="495" y="335" as="sourcePoint" />
            <mxPoint x="525" y="335.875" as="targetPoint" />
          </mxGeometry>
        </mxCell>
        <mxCell id="nBgyzqws7G7qOZCPQtSL-349" value="" style="endArrow=classic;startArrow=classic;html=1;rounded=0;entryX=0;entryY=0.25;entryDx=0;entryDy=0;" edge="1" parent="1">
          <mxGeometry width="50" height="50" relative="1" as="geometry">
            <mxPoint x="494" y="349" as="sourcePoint" />
            <mxPoint x="524" y="349.875" as="targetPoint" />
          </mxGeometry>
        </mxCell>
        <mxCell id="nBgyzqws7G7qOZCPQtSL-350" value="" style="endArrow=classic;startArrow=classic;html=1;rounded=0;entryX=0;entryY=0.25;entryDx=0;entryDy=0;" edge="1" parent="1">
          <mxGeometry width="50" height="50" relative="1" as="geometry">
            <mxPoint x="494" y="364" as="sourcePoint" />
            <mxPoint x="524" y="364.875" as="targetPoint" />
          </mxGeometry>
        </mxCell>
        <mxCell id="nBgyzqws7G7qOZCPQtSL-351" value="&lt;font style=&quot;font-size: 13px;&quot; face=&quot;Times New Roman&quot;&gt;Fine&lt;br&gt;Tune&lt;br&gt;Clusters &amp;amp; Power&lt;/font&gt;" style="rounded=0;whiteSpace=wrap;html=1;fillColor=none;strokeColor=none;align=left;" vertex="1" parent="1">
          <mxGeometry x="103" y="317" width="67" height="70" as="geometry" />
        </mxCell>
        <mxCell id="nBgyzqws7G7qOZCPQtSL-352" value="&lt;font style=&quot;font-size: 11px;&quot; face=&quot;Times New Roman&quot;&gt;QL Agent&lt;/font&gt;" style="rounded=0;whiteSpace=wrap;html=1;strokeColor=none;fillColor=none;" vertex="1" parent="1">
          <mxGeometry x="522" y="373" width="54" height="10" as="geometry" />
        </mxCell>
        <mxCell id="nBgyzqws7G7qOZCPQtSL-353" value="" style="endArrow=classic;html=1;rounded=0;entryX=0.5;entryY=1;entryDx=0;entryDy=0;exitX=0.5;exitY=1;exitDx=0;exitDy=0;" edge="1" parent="1" source="nBgyzqws7G7qOZCPQtSL-245" target="nBgyzqws7G7qOZCPQtSL-247">
          <mxGeometry width="50" height="50" relative="1" as="geometry">
            <mxPoint x="230" y="360" as="sourcePoint" />
            <mxPoint x="280" y="310" as="targetPoint" />
          </mxGeometry>
        </mxCell>
        <mxCell id="nBgyzqws7G7qOZCPQtSL-439" value="" style="rounded=0;whiteSpace=wrap;html=1;fillColor=#f5f5f5;strokeColor=#666666;fontColor=#333333;" vertex="1" parent="1">
          <mxGeometry x="173" y="412.98" width="326" height="60" as="geometry" />
        </mxCell>
        <mxCell id="nBgyzqws7G7qOZCPQtSL-440" value="" style="ellipse;whiteSpace=wrap;html=1;aspect=fixed;" vertex="1" parent="1">
          <mxGeometry x="219" y="417.98" width="10" height="10" as="geometry" />
        </mxCell>
        <mxCell id="nBgyzqws7G7qOZCPQtSL-441" value="" style="ellipse;whiteSpace=wrap;html=1;aspect=fixed;" vertex="1" parent="1">
          <mxGeometry x="219" y="447.98" width="10" height="10" as="geometry" />
        </mxCell>
        <mxCell id="nBgyzqws7G7qOZCPQtSL-442" value="" style="ellipse;whiteSpace=wrap;html=1;aspect=fixed;" vertex="1" parent="1">
          <mxGeometry x="269" y="432.98" width="10" height="10" as="geometry" />
        </mxCell>
        <mxCell id="nBgyzqws7G7qOZCPQtSL-443" value="" style="ellipse;whiteSpace=wrap;html=1;aspect=fixed;" vertex="1" parent="1">
          <mxGeometry x="299" y="417.98" width="10" height="10" as="geometry" />
        </mxCell>
        <mxCell id="nBgyzqws7G7qOZCPQtSL-444" value="" style="ellipse;whiteSpace=wrap;html=1;aspect=fixed;" vertex="1" parent="1">
          <mxGeometry x="189" y="417.98" width="10" height="10" as="geometry" />
        </mxCell>
        <mxCell id="nBgyzqws7G7qOZCPQtSL-445" value="" style="ellipse;whiteSpace=wrap;html=1;aspect=fixed;" vertex="1" parent="1">
          <mxGeometry x="299" y="447.98" width="10" height="10" as="geometry" />
        </mxCell>
        <mxCell id="nBgyzqws7G7qOZCPQtSL-446" value="" style="ellipse;whiteSpace=wrap;html=1;aspect=fixed;" vertex="1" parent="1">
          <mxGeometry x="319" y="432.98" width="10" height="10" as="geometry" />
        </mxCell>
        <mxCell id="nBgyzqws7G7qOZCPQtSL-447" value="" style="ellipse;whiteSpace=wrap;html=1;aspect=fixed;" vertex="1" parent="1">
          <mxGeometry x="199" y="437.98" width="10" height="10" as="geometry" />
        </mxCell>
        <mxCell id="nBgyzqws7G7qOZCPQtSL-448" value="" style="ellipse;whiteSpace=wrap;html=1;aspect=fixed;" vertex="1" parent="1">
          <mxGeometry x="249" y="452.98" width="10" height="10" as="geometry" />
        </mxCell>
        <mxCell id="nBgyzqws7G7qOZCPQtSL-449" value="" style="ellipse;whiteSpace=wrap;html=1;aspect=fixed;fillColor=#e51400;fontColor=#ffffff;strokeColor=#B20000;" vertex="1" parent="1">
          <mxGeometry x="239" y="428.98" width="10" height="10" as="geometry" />
        </mxCell>
        <mxCell id="nBgyzqws7G7qOZCPQtSL-450" value="" style="ellipse;whiteSpace=wrap;html=1;aspect=fixed;" vertex="1" parent="1">
          <mxGeometry x="204" y="458.98" width="10" height="10" as="geometry" />
        </mxCell>
        <mxCell id="nBgyzqws7G7qOZCPQtSL-451" value="" style="ellipse;whiteSpace=wrap;html=1;aspect=fixed;" vertex="1" parent="1">
          <mxGeometry x="179" y="442.98" width="10" height="10" as="geometry" />
        </mxCell>
        <mxCell id="nBgyzqws7G7qOZCPQtSL-452" value="" style="ellipse;whiteSpace=wrap;html=1;aspect=fixed;" vertex="1" parent="1">
          <mxGeometry x="329" y="452.98" width="10" height="10" as="geometry" />
        </mxCell>
        <mxCell id="nBgyzqws7G7qOZCPQtSL-453" value="" style="ellipse;whiteSpace=wrap;html=1;aspect=fixed;" vertex="1" parent="1">
          <mxGeometry x="339" y="422.98" width="10" height="10" as="geometry" />
        </mxCell>
        <mxCell id="nBgyzqws7G7qOZCPQtSL-454" value="" style="ellipse;whiteSpace=wrap;html=1;aspect=fixed;fillColor=#e51400;fontColor=#ffffff;strokeColor=#B20000;" vertex="1" parent="1">
          <mxGeometry x="287" y="436.98" width="10" height="10" as="geometry" />
        </mxCell>
        <mxCell id="nBgyzqws7G7qOZCPQtSL-455" value="" style="ellipse;whiteSpace=wrap;html=1;aspect=fixed;" vertex="1" parent="1">
          <mxGeometry x="369" y="422.98" width="10" height="10" as="geometry" />
        </mxCell>
        <mxCell id="nBgyzqws7G7qOZCPQtSL-456" value="" style="ellipse;whiteSpace=wrap;html=1;aspect=fixed;" vertex="1" parent="1">
          <mxGeometry x="392" y="458.98" width="10" height="10" as="geometry" />
        </mxCell>
        <mxCell id="nBgyzqws7G7qOZCPQtSL-457" value="" style="ellipse;whiteSpace=wrap;html=1;aspect=fixed;" vertex="1" parent="1">
          <mxGeometry x="389" y="432.98" width="10" height="10" as="geometry" />
        </mxCell>
        <mxCell id="nBgyzqws7G7qOZCPQtSL-458" value="" style="ellipse;whiteSpace=wrap;html=1;aspect=fixed;" vertex="1" parent="1">
          <mxGeometry x="419" y="432.98" width="10" height="10" as="geometry" />
        </mxCell>
        <mxCell id="nBgyzqws7G7qOZCPQtSL-459" value="" style="ellipse;whiteSpace=wrap;html=1;aspect=fixed;" vertex="1" parent="1">
          <mxGeometry x="429" y="454.98" width="10" height="10" as="geometry" />
        </mxCell>
        <mxCell id="nBgyzqws7G7qOZCPQtSL-460" value="" style="ellipse;whiteSpace=wrap;html=1;aspect=fixed;" vertex="1" parent="1">
          <mxGeometry x="409" y="419.98" width="10" height="10" as="geometry" />
        </mxCell>
        <mxCell id="nBgyzqws7G7qOZCPQtSL-461" value="" style="ellipse;whiteSpace=wrap;html=1;aspect=fixed;" vertex="1" parent="1">
          <mxGeometry x="448" y="434.98" width="10" height="10" as="geometry" />
        </mxCell>
        <mxCell id="nBgyzqws7G7qOZCPQtSL-462" value="" style="ellipse;whiteSpace=wrap;html=1;aspect=fixed;" vertex="1" parent="1">
          <mxGeometry x="447" y="448.98" width="10" height="10" as="geometry" />
        </mxCell>
        <mxCell id="nBgyzqws7G7qOZCPQtSL-463" value="" style="ellipse;whiteSpace=wrap;html=1;aspect=fixed;" vertex="1" parent="1">
          <mxGeometry x="476" y="450.98" width="10" height="10" as="geometry" />
        </mxCell>
        <mxCell id="nBgyzqws7G7qOZCPQtSL-464" value="" style="ellipse;whiteSpace=wrap;html=1;aspect=fixed;" vertex="1" parent="1">
          <mxGeometry x="479" y="424.98" width="10" height="10" as="geometry" />
        </mxCell>
        <mxCell id="nBgyzqws7G7qOZCPQtSL-465" value="" style="ellipse;whiteSpace=wrap;html=1;aspect=fixed;" vertex="1" parent="1">
          <mxGeometry x="479" y="438.98" width="10" height="10" as="geometry" />
        </mxCell>
        <mxCell id="nBgyzqws7G7qOZCPQtSL-466" value="" style="ellipse;whiteSpace=wrap;html=1;aspect=fixed;" vertex="1" parent="1">
          <mxGeometry x="412" y="458.98" width="10" height="10" as="geometry" />
        </mxCell>
        <mxCell id="nBgyzqws7G7qOZCPQtSL-467" value="" style="ellipse;whiteSpace=wrap;html=1;aspect=fixed;fillColor=#e51400;fontColor=#ffffff;strokeColor=#B20000;" vertex="1" parent="1">
          <mxGeometry x="399" y="445.98" width="10" height="10" as="geometry" />
        </mxCell>
        <mxCell id="nBgyzqws7G7qOZCPQtSL-468" value="" style="ellipse;whiteSpace=wrap;html=1;aspect=fixed;" vertex="1" parent="1">
          <mxGeometry x="334" y="437.98" width="10" height="10" as="geometry" />
        </mxCell>
        <mxCell id="nBgyzqws7G7qOZCPQtSL-469" value="" style="ellipse;whiteSpace=wrap;html=1;aspect=fixed;" vertex="1" parent="1">
          <mxGeometry x="277" y="452.98" width="10" height="10" as="geometry" />
        </mxCell>
        <mxCell id="nBgyzqws7G7qOZCPQtSL-470" value="" style="ellipse;whiteSpace=wrap;html=1;aspect=fixed;" vertex="1" parent="1">
          <mxGeometry x="277" y="417.98" width="10" height="10" as="geometry" />
        </mxCell>
        <mxCell id="nBgyzqws7G7qOZCPQtSL-471" value="" style="ellipse;whiteSpace=wrap;html=1;aspect=fixed;" vertex="1" parent="1">
          <mxGeometry x="239" y="442.98" width="10" height="10" as="geometry" />
        </mxCell>
        <mxCell id="nBgyzqws7G7qOZCPQtSL-472" value="" style="ellipse;whiteSpace=wrap;html=1;aspect=fixed;" vertex="1" parent="1">
          <mxGeometry x="369" y="452.98" width="10" height="10" as="geometry" />
        </mxCell>
        <mxCell id="nBgyzqws7G7qOZCPQtSL-473" value="" style="ellipse;whiteSpace=wrap;html=1;aspect=fixed;" vertex="1" parent="1">
          <mxGeometry x="369" y="438.98" width="10" height="10" as="geometry" />
        </mxCell>
        <mxCell id="nBgyzqws7G7qOZCPQtSL-474" value="" style="ellipse;whiteSpace=wrap;html=1;aspect=fixed;" vertex="1" parent="1">
          <mxGeometry x="457" y="417.98" width="10" height="10" as="geometry" />
        </mxCell>
        <mxCell id="nBgyzqws7G7qOZCPQtSL-475" value="" style="ellipse;whiteSpace=wrap;html=1;aspect=fixed;fillColor=#e51400;fontColor=#ffffff;strokeColor=#B20000;" vertex="1" parent="1">
          <mxGeometry x="462.5" y="440.98" width="10" height="10" as="geometry" />
        </mxCell>
        <mxCell id="nBgyzqws7G7qOZCPQtSL-476" value="" style="ellipse;whiteSpace=wrap;html=1;aspect=fixed;" vertex="1" parent="1">
          <mxGeometry x="438" y="426.98" width="10" height="10" as="geometry" />
        </mxCell>
        <mxCell id="nBgyzqws7G7qOZCPQtSL-477" value="" style="ellipse;whiteSpace=wrap;html=1;aspect=fixed;" vertex="1" parent="1">
          <mxGeometry x="324" y="419.98" width="10" height="10" as="geometry" />
        </mxCell>
        <mxCell id="nBgyzqws7G7qOZCPQtSL-478" value="" style="ellipse;whiteSpace=wrap;html=1;aspect=fixed;" vertex="1" parent="1">
          <mxGeometry x="251" y="416.98" width="10" height="10" as="geometry" />
        </mxCell>
        <mxCell id="nBgyzqws7G7qOZCPQtSL-479" value="" style="ellipse;whiteSpace=wrap;html=1;aspect=fixed;fillColor=#e51400;fontColor=#ffffff;strokeColor=#B20000;" vertex="1" parent="1">
          <mxGeometry x="349" y="441.98" width="10" height="10" as="geometry" />
        </mxCell>
        <mxCell id="nBgyzqws7G7qOZCPQtSL-480" value="" style="endArrow=classic;html=1;rounded=0;exitX=0.5;exitY=1;exitDx=0;exitDy=0;" edge="1" parent="1" source="nBgyzqws7G7qOZCPQtSL-444">
          <mxGeometry width="50" height="50" relative="1" as="geometry">
            <mxPoint x="227" y="463" as="sourcePoint" />
            <mxPoint x="234" y="432.98" as="targetPoint" />
          </mxGeometry>
        </mxCell>
        <mxCell id="nBgyzqws7G7qOZCPQtSL-481" value="" style="endArrow=classic;html=1;rounded=0;exitX=0.5;exitY=1;exitDx=0;exitDy=0;" edge="1" parent="1" source="nBgyzqws7G7qOZCPQtSL-451">
          <mxGeometry width="50" height="50" relative="1" as="geometry">
            <mxPoint x="207" y="483" as="sourcePoint" />
            <mxPoint x="234" y="432.98" as="targetPoint" />
          </mxGeometry>
        </mxCell>
        <mxCell id="nBgyzqws7G7qOZCPQtSL-482" value="" style="endArrow=classic;html=1;rounded=0;entryX=0;entryY=1;entryDx=0;entryDy=0;exitX=1;exitY=0;exitDx=0;exitDy=0;" edge="1" parent="1" source="nBgyzqws7G7qOZCPQtSL-440" target="nBgyzqws7G7qOZCPQtSL-449">
          <mxGeometry width="50" height="50" relative="1" as="geometry">
            <mxPoint x="197" y="483" as="sourcePoint" />
            <mxPoint x="207" y="493" as="targetPoint" />
          </mxGeometry>
        </mxCell>
        <mxCell id="nBgyzqws7G7qOZCPQtSL-483" value="" style="endArrow=classic;html=1;rounded=0;entryX=0.5;entryY=1;entryDx=0;entryDy=0;exitX=0.5;exitY=1;exitDx=0;exitDy=0;" edge="1" parent="1" source="nBgyzqws7G7qOZCPQtSL-471" target="nBgyzqws7G7qOZCPQtSL-449">
          <mxGeometry width="50" height="50" relative="1" as="geometry">
            <mxPoint x="257" y="553" as="sourcePoint" />
            <mxPoint x="267" y="563" as="targetPoint" />
          </mxGeometry>
        </mxCell>
        <mxCell id="nBgyzqws7G7qOZCPQtSL-484" value="" style="endArrow=classic;html=1;rounded=0;entryX=0.5;entryY=1;entryDx=0;entryDy=0;exitX=0.5;exitY=1;exitDx=0;exitDy=0;" edge="1" parent="1">
          <mxGeometry width="50" height="50" relative="1" as="geometry">
            <mxPoint x="259" y="458.98" as="sourcePoint" />
            <mxPoint x="249" y="433.98" as="targetPoint" />
          </mxGeometry>
        </mxCell>
        <mxCell id="nBgyzqws7G7qOZCPQtSL-485" value="" style="endArrow=classic;html=1;rounded=0;entryX=0.5;entryY=1;entryDx=0;entryDy=0;exitX=0.5;exitY=0;exitDx=0;exitDy=0;" edge="1" parent="1">
          <mxGeometry width="50" height="50" relative="1" as="geometry">
            <mxPoint x="254" y="416.98" as="sourcePoint" />
            <mxPoint x="241" y="433.98" as="targetPoint" />
          </mxGeometry>
        </mxCell>
        <mxCell id="nBgyzqws7G7qOZCPQtSL-486" value="" style="endArrow=classic;html=1;rounded=0;entryX=0;entryY=0;entryDx=0;entryDy=0;exitX=0.5;exitY=0;exitDx=0;exitDy=0;" edge="1" parent="1">
          <mxGeometry width="50" height="50" relative="1" as="geometry">
            <mxPoint x="285" y="417.98" as="sourcePoint" />
            <mxPoint x="291.46446609406735" y="438.44446609406737" as="targetPoint" />
          </mxGeometry>
        </mxCell>
        <mxCell id="nBgyzqws7G7qOZCPQtSL-487" value="" style="endArrow=classic;html=1;rounded=0;entryX=0.5;entryY=1;entryDx=0;entryDy=0;exitX=0.5;exitY=1;exitDx=0;exitDy=0;" edge="1" parent="1" source="nBgyzqws7G7qOZCPQtSL-442" target="nBgyzqws7G7qOZCPQtSL-454">
          <mxGeometry width="50" height="50" relative="1" as="geometry">
            <mxPoint x="307" y="513" as="sourcePoint" />
            <mxPoint x="317" y="523" as="targetPoint" />
          </mxGeometry>
        </mxCell>
        <mxCell id="nBgyzqws7G7qOZCPQtSL-488" value="" style="endArrow=classic;html=1;rounded=0;exitX=0;exitY=1;exitDx=0;exitDy=0;" edge="1" parent="1">
          <mxGeometry width="50" height="50" relative="1" as="geometry">
            <mxPoint x="285.46446609406735" y="461.51553390593267" as="sourcePoint" />
            <mxPoint x="297" y="447" as="targetPoint" />
          </mxGeometry>
        </mxCell>
        <mxCell id="nBgyzqws7G7qOZCPQtSL-489" value="" style="endArrow=classic;html=1;rounded=0;entryX=1;entryY=0;entryDx=0;entryDy=0;exitX=0;exitY=1;exitDx=0;exitDy=0;" edge="1" parent="1" source="nBgyzqws7G7qOZCPQtSL-445" target="nBgyzqws7G7qOZCPQtSL-454">
          <mxGeometry width="50" height="50" relative="1" as="geometry">
            <mxPoint x="317" y="513" as="sourcePoint" />
            <mxPoint x="327" y="523" as="targetPoint" />
          </mxGeometry>
        </mxCell>
        <mxCell id="nBgyzqws7G7qOZCPQtSL-490" value="" style="endArrow=classic;html=1;rounded=0;entryX=0.5;entryY=1;entryDx=0;entryDy=0;exitX=0;exitY=0.5;exitDx=0;exitDy=0;" edge="1" parent="1" source="nBgyzqws7G7qOZCPQtSL-452" target="nBgyzqws7G7qOZCPQtSL-479">
          <mxGeometry width="50" height="50" relative="1" as="geometry">
            <mxPoint x="327" y="503" as="sourcePoint" />
            <mxPoint x="337" y="513" as="targetPoint" />
          </mxGeometry>
        </mxCell>
        <mxCell id="nBgyzqws7G7qOZCPQtSL-491" value="" style="endArrow=classic;html=1;rounded=0;exitX=1;exitY=0.5;exitDx=0;exitDy=0;" edge="1" parent="1" source="nBgyzqws7G7qOZCPQtSL-453">
          <mxGeometry width="50" height="50" relative="1" as="geometry">
            <mxPoint x="367" y="503" as="sourcePoint" />
            <mxPoint x="357" y="443" as="targetPoint" />
          </mxGeometry>
        </mxCell>
        <mxCell id="nBgyzqws7G7qOZCPQtSL-492" value="" style="endArrow=classic;html=1;rounded=0;entryX=0;entryY=0;entryDx=0;entryDy=0;exitX=0.5;exitY=1;exitDx=0;exitDy=0;" edge="1" parent="1" source="nBgyzqws7G7qOZCPQtSL-477" target="nBgyzqws7G7qOZCPQtSL-479">
          <mxGeometry width="50" height="50" relative="1" as="geometry">
            <mxPoint x="337" y="473" as="sourcePoint" />
            <mxPoint x="347" y="483" as="targetPoint" />
          </mxGeometry>
        </mxCell>
        <mxCell id="nBgyzqws7G7qOZCPQtSL-493" value="" style="endArrow=classic;html=1;rounded=0;entryX=0.5;entryY=1;entryDx=0;entryDy=0;exitX=0.5;exitY=1;exitDx=0;exitDy=0;" edge="1" parent="1" source="nBgyzqws7G7qOZCPQtSL-446" target="nBgyzqws7G7qOZCPQtSL-479">
          <mxGeometry width="50" height="50" relative="1" as="geometry">
            <mxPoint x="337" y="503" as="sourcePoint" />
            <mxPoint x="347" y="513" as="targetPoint" />
          </mxGeometry>
        </mxCell>
        <mxCell id="nBgyzqws7G7qOZCPQtSL-494" value="" style="shape=cross;whiteSpace=wrap;html=1;fillColor=#60a917;strokeColor=#2D7600;fontColor=#ffffff;" vertex="1" parent="1">
          <mxGeometry x="352" y="450" width="15" height="16.98" as="geometry" />
        </mxCell>
        <mxCell id="nBgyzqws7G7qOZCPQtSL-495" value="" style="shape=cross;whiteSpace=wrap;html=1;fillColor=#60a917;strokeColor=#2D7600;fontColor=#ffffff;" vertex="1" parent="1">
          <mxGeometry x="232" y="418" width="15" height="16.98" as="geometry" />
        </mxCell>
        <mxCell id="nBgyzqws7G7qOZCPQtSL-496" value="" style="endArrow=classic;html=1;rounded=0;exitX=0;exitY=1;exitDx=0;exitDy=0;" edge="1" parent="1" source="nBgyzqws7G7qOZCPQtSL-441" target="nBgyzqws7G7qOZCPQtSL-449">
          <mxGeometry width="50" height="50" relative="1" as="geometry">
            <mxPoint x="220" y="457" as="sourcePoint" />
            <mxPoint x="209" y="443" as="targetPoint" />
          </mxGeometry>
        </mxCell>
        <mxCell id="nBgyzqws7G7qOZCPQtSL-497" value="" style="shape=cross;whiteSpace=wrap;html=1;fillColor=#60a917;strokeColor=#2D7600;fontColor=#ffffff;" vertex="1" parent="1">
          <mxGeometry x="202.5" y="431" width="15" height="16.98" as="geometry" />
        </mxCell>
        <mxCell id="nBgyzqws7G7qOZCPQtSL-498" value="" style="endArrow=classic;html=1;rounded=0;exitX=0;exitY=0.5;exitDx=0;exitDy=0;entryX=1;entryY=0;entryDx=0;entryDy=0;" edge="1" parent="1" source="nBgyzqws7G7qOZCPQtSL-455" target="nBgyzqws7G7qOZCPQtSL-479">
          <mxGeometry width="50" height="50" relative="1" as="geometry">
            <mxPoint x="297" y="473" as="sourcePoint" />
            <mxPoint x="347" y="423" as="targetPoint" />
          </mxGeometry>
        </mxCell>
        <mxCell id="nBgyzqws7G7qOZCPQtSL-499" value="" style="endArrow=classic;html=1;rounded=0;exitX=0.348;exitY=0.521;exitDx=0;exitDy=0;entryX=1;entryY=0.5;entryDx=0;entryDy=0;exitPerimeter=0;" edge="1" parent="1" source="nBgyzqws7G7qOZCPQtSL-473" target="nBgyzqws7G7qOZCPQtSL-479">
          <mxGeometry width="50" height="50" relative="1" as="geometry">
            <mxPoint x="388" y="473" as="sourcePoint" />
            <mxPoint x="377" y="488" as="targetPoint" />
          </mxGeometry>
        </mxCell>
        <mxCell id="nBgyzqws7G7qOZCPQtSL-500" value="" style="endArrow=classic;html=1;rounded=0;exitX=0;exitY=0;exitDx=0;exitDy=0;entryX=1;entryY=1;entryDx=0;entryDy=0;" edge="1" parent="1" source="nBgyzqws7G7qOZCPQtSL-472" target="nBgyzqws7G7qOZCPQtSL-479">
          <mxGeometry width="50" height="50" relative="1" as="geometry">
            <mxPoint x="398" y="503" as="sourcePoint" />
            <mxPoint x="387" y="518" as="targetPoint" />
          </mxGeometry>
        </mxCell>
        <mxCell id="nBgyzqws7G7qOZCPQtSL-501" value="" style="endArrow=classic;html=1;rounded=0;exitX=1;exitY=0.5;exitDx=0;exitDy=0;entryX=0.49;entryY=0.678;entryDx=0;entryDy=0;entryPerimeter=0;" edge="1" parent="1" source="nBgyzqws7G7qOZCPQtSL-457" target="nBgyzqws7G7qOZCPQtSL-467">
          <mxGeometry width="50" height="50" relative="1" as="geometry">
            <mxPoint x="268" y="473" as="sourcePoint" />
            <mxPoint x="257" y="488" as="targetPoint" />
          </mxGeometry>
        </mxCell>
        <mxCell id="nBgyzqws7G7qOZCPQtSL-502" value="" style="endArrow=classic;html=1;rounded=0;exitX=0;exitY=0;exitDx=0;exitDy=0;entryX=0;entryY=1;entryDx=0;entryDy=0;" edge="1" parent="1" source="nBgyzqws7G7qOZCPQtSL-456" target="nBgyzqws7G7qOZCPQtSL-467">
          <mxGeometry width="50" height="50" relative="1" as="geometry">
            <mxPoint x="408" y="473" as="sourcePoint" />
            <mxPoint x="397" y="488" as="targetPoint" />
          </mxGeometry>
        </mxCell>
        <mxCell id="nBgyzqws7G7qOZCPQtSL-503" value="" style="endArrow=classic;html=1;rounded=0;exitX=0;exitY=1;exitDx=0;exitDy=0;entryX=0.5;entryY=1;entryDx=0;entryDy=0;" edge="1" parent="1" source="nBgyzqws7G7qOZCPQtSL-466" target="nBgyzqws7G7qOZCPQtSL-467">
          <mxGeometry width="50" height="50" relative="1" as="geometry">
            <mxPoint x="418" y="493" as="sourcePoint" />
            <mxPoint x="407" y="508" as="targetPoint" />
          </mxGeometry>
        </mxCell>
        <mxCell id="nBgyzqws7G7qOZCPQtSL-504" value="" style="endArrow=classic;html=1;rounded=0;exitX=0;exitY=1;exitDx=0;exitDy=0;entryX=0;entryY=0;entryDx=0;entryDy=6.99;entryPerimeter=0;" edge="1" parent="1" source="nBgyzqws7G7qOZCPQtSL-460" target="nBgyzqws7G7qOZCPQtSL-507">
          <mxGeometry width="50" height="50" relative="1" as="geometry">
            <mxPoint x="418" y="513" as="sourcePoint" />
            <mxPoint x="407" y="528" as="targetPoint" />
          </mxGeometry>
        </mxCell>
        <mxCell id="nBgyzqws7G7qOZCPQtSL-505" value="" style="endArrow=classic;html=1;rounded=0;exitX=0;exitY=0.5;exitDx=0;exitDy=0;entryX=1;entryY=1;entryDx=0;entryDy=0;" edge="1" parent="1" source="nBgyzqws7G7qOZCPQtSL-458" target="nBgyzqws7G7qOZCPQtSL-467">
          <mxGeometry width="50" height="50" relative="1" as="geometry">
            <mxPoint x="428" y="523" as="sourcePoint" />
            <mxPoint x="417" y="538" as="targetPoint" />
          </mxGeometry>
        </mxCell>
        <mxCell id="nBgyzqws7G7qOZCPQtSL-506" value="" style="endArrow=classic;html=1;rounded=0;exitX=0;exitY=0.5;exitDx=0;exitDy=0;entryX=1;entryY=1;entryDx=0;entryDy=0;" edge="1" parent="1" source="nBgyzqws7G7qOZCPQtSL-459" target="nBgyzqws7G7qOZCPQtSL-467">
          <mxGeometry width="50" height="50" relative="1" as="geometry">
            <mxPoint x="458" y="513" as="sourcePoint" />
            <mxPoint x="447" y="528" as="targetPoint" />
          </mxGeometry>
        </mxCell>
        <mxCell id="nBgyzqws7G7qOZCPQtSL-507" value="" style="shape=cross;whiteSpace=wrap;html=1;fillColor=#60a917;strokeColor=#2D7600;fontColor=#ffffff;" vertex="1" parent="1">
          <mxGeometry x="406" y="441" width="15" height="16.98" as="geometry" />
        </mxCell>
        <mxCell id="nBgyzqws7G7qOZCPQtSL-508" value="" style="endArrow=classic;html=1;rounded=0;exitX=1;exitY=0.5;exitDx=0;exitDy=0;entryX=0;entryY=0;entryDx=0;entryDy=0;" edge="1" parent="1" source="nBgyzqws7G7qOZCPQtSL-476" target="nBgyzqws7G7qOZCPQtSL-475">
          <mxGeometry width="50" height="50" relative="1" as="geometry">
            <mxPoint x="218" y="483" as="sourcePoint" />
            <mxPoint x="207" y="498" as="targetPoint" />
          </mxGeometry>
        </mxCell>
        <mxCell id="nBgyzqws7G7qOZCPQtSL-509" value="" style="endArrow=classic;html=1;rounded=0;exitX=0.5;exitY=1;exitDx=0;exitDy=0;entryX=0;entryY=1;entryDx=0;entryDy=0;" edge="1" parent="1" source="nBgyzqws7G7qOZCPQtSL-462" target="nBgyzqws7G7qOZCPQtSL-475">
          <mxGeometry width="50" height="50" relative="1" as="geometry">
            <mxPoint x="448" y="463" as="sourcePoint" />
            <mxPoint x="437" y="478" as="targetPoint" />
          </mxGeometry>
        </mxCell>
        <mxCell id="nBgyzqws7G7qOZCPQtSL-510" value="" style="endArrow=classic;html=1;rounded=0;exitX=1;exitY=1;exitDx=0;exitDy=0;entryX=0;entryY=0;entryDx=3;entryDy=6.99;entryPerimeter=0;" edge="1" parent="1" source="nBgyzqws7G7qOZCPQtSL-474" target="nBgyzqws7G7qOZCPQtSL-514">
          <mxGeometry width="50" height="50" relative="1" as="geometry">
            <mxPoint x="448" y="503" as="sourcePoint" />
            <mxPoint x="437" y="518" as="targetPoint" />
          </mxGeometry>
        </mxCell>
        <mxCell id="nBgyzqws7G7qOZCPQtSL-511" value="" style="endArrow=classic;html=1;rounded=0;exitX=0;exitY=1;exitDx=0;exitDy=0;entryX=1;entryY=1;entryDx=0;entryDy=0;" edge="1" parent="1" source="nBgyzqws7G7qOZCPQtSL-464" target="nBgyzqws7G7qOZCPQtSL-475">
          <mxGeometry width="50" height="50" relative="1" as="geometry">
            <mxPoint x="478" y="503" as="sourcePoint" />
            <mxPoint x="467" y="518" as="targetPoint" />
          </mxGeometry>
        </mxCell>
        <mxCell id="nBgyzqws7G7qOZCPQtSL-512" value="" style="endArrow=classic;html=1;rounded=0;exitX=0;exitY=1;exitDx=0;exitDy=0;entryX=0.121;entryY=0.791;entryDx=0;entryDy=0;entryPerimeter=0;" edge="1" parent="1" source="nBgyzqws7G7qOZCPQtSL-465" target="nBgyzqws7G7qOZCPQtSL-514">
          <mxGeometry width="50" height="50" relative="1" as="geometry">
            <mxPoint x="478" y="533" as="sourcePoint" />
            <mxPoint x="467" y="548" as="targetPoint" />
          </mxGeometry>
        </mxCell>
        <mxCell id="nBgyzqws7G7qOZCPQtSL-513" value="" style="endArrow=classic;html=1;rounded=0;exitX=0;exitY=1;exitDx=0;exitDy=0;entryX=0;entryY=1;entryDx=0;entryDy=0;" edge="1" parent="1" source="nBgyzqws7G7qOZCPQtSL-463" target="nBgyzqws7G7qOZCPQtSL-475">
          <mxGeometry width="50" height="50" relative="1" as="geometry">
            <mxPoint x="458" y="513" as="sourcePoint" />
            <mxPoint x="447" y="528" as="targetPoint" />
          </mxGeometry>
        </mxCell>
        <mxCell id="nBgyzqws7G7qOZCPQtSL-514" value="" style="shape=cross;whiteSpace=wrap;html=1;fillColor=#60a917;strokeColor=#2D7600;fontColor=#ffffff;" vertex="1" parent="1">
          <mxGeometry x="464" y="436" width="15" height="16.98" as="geometry" />
        </mxCell>
        <mxCell id="nBgyzqws7G7qOZCPQtSL-515" value="" style="shape=cross;whiteSpace=wrap;html=1;fillColor=#60a917;strokeColor=#2D7600;fontColor=#ffffff;" vertex="1" parent="1">
          <mxGeometry x="293" y="429" width="15" height="16.98" as="geometry" />
        </mxCell>
        <mxCell id="nBgyzqws7G7qOZCPQtSL-516" value="" style="endArrow=classic;html=1;rounded=0;exitX=0;exitY=0.5;exitDx=0;exitDy=0;entryX=0;entryY=0;entryDx=0;entryDy=9.99;entryPerimeter=0;" edge="1" parent="1" source="nBgyzqws7G7qOZCPQtSL-443" target="nBgyzqws7G7qOZCPQtSL-515">
          <mxGeometry width="50" height="50" relative="1" as="geometry">
            <mxPoint x="267" y="473" as="sourcePoint" />
            <mxPoint x="317" y="423" as="targetPoint" />
          </mxGeometry>
        </mxCell>
        <mxCell id="nBgyzqws7G7qOZCPQtSL-517" value="" style="fontColor=#ffffff;verticalAlign=top;verticalLabelPosition=bottom;labelPosition=center;align=center;html=1;outlineConnect=0;fillColor=#e51400;strokeColor=#B20000;gradientDirection=north;strokeWidth=2;shape=mxgraph.networks.radio_tower;" vertex="1" parent="1">
          <mxGeometry x="604" y="407" width="30" height="64.5" as="geometry" />
        </mxCell>
        <mxCell id="nBgyzqws7G7qOZCPQtSL-518" value="" style="endArrow=classic;html=1;rounded=0;entryX=0;entryY=0;entryDx=9;entryDy=16.98;exitX=0.5;exitY=0;exitDx=0;exitDy=0;entryPerimeter=0;" edge="1" parent="1" source="nBgyzqws7G7qOZCPQtSL-450" target="nBgyzqws7G7qOZCPQtSL-495">
          <mxGeometry width="50" height="50" relative="1" as="geometry">
            <mxPoint x="209" y="458.98" as="sourcePoint" />
            <mxPoint x="177.25126265847086" y="472.72873734152915" as="targetPoint" />
          </mxGeometry>
        </mxCell>
        <mxCell id="nBgyzqws7G7qOZCPQtSL-519" value="" style="shape=image;html=1;verticalAlign=top;verticalLabelPosition=bottom;labelBackgroundColor=#ffffff;imageAspect=0;aspect=fixed;image=https://icons.diagrams.net/icon-cache1/Phosphor_Duotone_Vol_4-2933/robot-duotone-1373.svg" vertex="1" parent="1">
          <mxGeometry x="522" y="407.73" width="62.5" height="62.5" as="geometry" />
        </mxCell>
        <mxCell id="nBgyzqws7G7qOZCPQtSL-520" value="" style="endArrow=classic;startArrow=classic;html=1;rounded=0;entryX=0;entryY=0.25;entryDx=0;entryDy=0;exitX=1;exitY=0.25;exitDx=0;exitDy=0;" edge="1" parent="1" source="nBgyzqws7G7qOZCPQtSL-439">
          <mxGeometry width="50" height="50" relative="1" as="geometry">
            <mxPoint x="499" y="427.98" as="sourcePoint" />
            <mxPoint x="529" y="428.855" as="targetPoint" />
          </mxGeometry>
        </mxCell>
        <mxCell id="nBgyzqws7G7qOZCPQtSL-521" value="" style="endArrow=classic;startArrow=classic;html=1;rounded=0;entryX=0;entryY=0.25;entryDx=0;entryDy=0;exitX=1;exitY=0.5;exitDx=0;exitDy=0;" edge="1" parent="1" source="nBgyzqws7G7qOZCPQtSL-439">
          <mxGeometry width="50" height="50" relative="1" as="geometry">
            <mxPoint x="498" y="441.98" as="sourcePoint" />
            <mxPoint x="528" y="442.855" as="targetPoint" />
          </mxGeometry>
        </mxCell>
        <mxCell id="nBgyzqws7G7qOZCPQtSL-522" value="" style="endArrow=classic;startArrow=classic;html=1;rounded=0;entryX=0;entryY=0.25;entryDx=0;entryDy=0;" edge="1" parent="1">
          <mxGeometry width="50" height="50" relative="1" as="geometry">
            <mxPoint x="498" y="456.98" as="sourcePoint" />
            <mxPoint x="528" y="457.855" as="targetPoint" />
          </mxGeometry>
        </mxCell>
        <mxCell id="nBgyzqws7G7qOZCPQtSL-523" value="&lt;font style=&quot;font-size: 11px;&quot; face=&quot;Times New Roman&quot;&gt;QL Agent&lt;/font&gt;" style="rounded=0;whiteSpace=wrap;html=1;strokeColor=none;fillColor=none;align=center;" vertex="1" parent="1">
          <mxGeometry x="525" y="465.98" width="54" height="10" as="geometry" />
        </mxCell>
        <mxCell id="nBgyzqws7G7qOZCPQtSL-524" value="" style="endArrow=classic;html=1;rounded=0;entryX=0.5;entryY=1;entryDx=0;entryDy=0;exitX=0.5;exitY=1;exitDx=0;exitDy=0;" edge="1" parent="1" source="nBgyzqws7G7qOZCPQtSL-447" target="nBgyzqws7G7qOZCPQtSL-449">
          <mxGeometry width="50" height="50" relative="1" as="geometry">
            <mxPoint x="234" y="452.98" as="sourcePoint" />
            <mxPoint x="284" y="402.98" as="targetPoint" />
          </mxGeometry>
        </mxCell>
        <mxCell id="nBgyzqws7G7qOZCPQtSL-525" value="&lt;font face=&quot;Times New Roman&quot;&gt;Base Station&lt;/font&gt;" style="rounded=0;whiteSpace=wrap;html=1;strokeColor=none;fillColor=none;" vertex="1" parent="1">
          <mxGeometry x="574.5" y="470.98" width="68" height="10" as="geometry" />
        </mxCell>
        <mxCell id="nBgyzqws7G7qOZCPQtSL-531" value="" style="endArrow=classic;html=1;rounded=0;exitX=0;exitY=0;exitDx=3;exitDy=6.99;exitPerimeter=0;" edge="1" parent="1">
          <mxGeometry width="50" height="50" relative="1" as="geometry">
            <mxPoint x="471" y="443.48" as="sourcePoint" />
            <mxPoint x="608" y="431.6421739130435" as="targetPoint" />
            <Array as="points">
              <mxPoint x="554" y="402.49" />
            </Array>
          </mxGeometry>
        </mxCell>
        <mxCell id="nBgyzqws7G7qOZCPQtSL-533" value="" style="endArrow=none;html=1;rounded=0;exitX=0.496;exitY=0.031;exitDx=0;exitDy=0;exitPerimeter=0;strokeWidth=2;" edge="1" parent="1" source="nBgyzqws7G7qOZCPQtSL-519">
          <mxGeometry width="50" height="50" relative="1" as="geometry">
            <mxPoint x="553.6077384435342" y="407.73" as="sourcePoint" />
            <mxPoint x="553" y="402" as="targetPoint" />
          </mxGeometry>
        </mxCell>
        <mxCell id="nBgyzqws7G7qOZCPQtSL-537" value="" style="endArrow=classic;html=1;rounded=0;exitX=0;exitY=0;exitDx=3;exitDy=9.99;exitPerimeter=0;" edge="1" parent="1" source="nBgyzqws7G7qOZCPQtSL-507">
          <mxGeometry width="50" height="50" relative="1" as="geometry">
            <mxPoint x="410.5355339059313" y="454.51553390593136" as="sourcePoint" />
            <mxPoint x="603" y="432" as="targetPoint" />
            <Array as="points">
              <mxPoint x="553" y="402" />
            </Array>
          </mxGeometry>
        </mxCell>
        <mxCell id="nBgyzqws7G7qOZCPQtSL-539" value="" style="endArrow=classic;html=1;rounded=0;exitX=0;exitY=0;exitDx=0;exitDy=0;" edge="1" parent="1" source="nBgyzqws7G7qOZCPQtSL-454" target="nBgyzqws7G7qOZCPQtSL-517">
          <mxGeometry width="50" height="50" relative="1" as="geometry">
            <mxPoint x="460" y="382" as="sourcePoint" />
            <mxPoint x="510" y="332" as="targetPoint" />
            <Array as="points">
              <mxPoint x="550" y="402" />
            </Array>
          </mxGeometry>
        </mxCell>
        <mxCell id="nBgyzqws7G7qOZCPQtSL-541" value="" style="endArrow=classic;html=1;rounded=0;exitX=0;exitY=0;exitDx=9;exitDy=16.98;exitPerimeter=0;" edge="1" parent="1" source="nBgyzqws7G7qOZCPQtSL-495">
          <mxGeometry width="50" height="50" relative="1" as="geometry">
            <mxPoint x="250" y="438" as="sourcePoint" />
            <mxPoint x="606" y="431.1521739130435" as="targetPoint" />
            <Array as="points">
              <mxPoint x="552" y="402" />
            </Array>
          </mxGeometry>
        </mxCell>
        <mxCell id="nBgyzqws7G7qOZCPQtSL-543" value="&lt;font face=&quot;Times New Roman&quot;&gt;Tx, Rx under AWGN channel&lt;/font&gt;" style="rounded=0;whiteSpace=wrap;html=1;fillColor=none;strokeColor=none;align=left;" vertex="1" parent="1">
          <mxGeometry x="102" y="407.98" width="67" height="70" as="geometry" />
        </mxCell>
        <mxCell id="nBgyzqws7G7qOZCPQtSL-544" value="&lt;font style=&quot;font-size: 13px;&quot; face=&quot;Times New Roman&quot;&gt;Layer 1: DEEC&lt;/font&gt;" style="rounded=0;whiteSpace=wrap;html=1;" vertex="1" parent="1">
          <mxGeometry x="341" y="112" width="90" height="17" as="geometry" />
        </mxCell>
        <mxCell id="nBgyzqws7G7qOZCPQtSL-545" value="&lt;font style=&quot;font-size: 13px;&quot; face=&quot;Times New Roman&quot;&gt;Layer 2: EEKA&lt;/font&gt;" style="rounded=0;whiteSpace=wrap;html=1;" vertex="1" parent="1">
          <mxGeometry x="343" y="202.5" width="90" height="16.5" as="geometry" />
        </mxCell>
        <mxCell id="nBgyzqws7G7qOZCPQtSL-546" value="&lt;font style=&quot;font-size: 13px;&quot; face=&quot;Times New Roman&quot;&gt;Layer 3: K-Mean&lt;/font&gt;" style="rounded=0;whiteSpace=wrap;html=1;" vertex="1" parent="1">
          <mxGeometry x="342" y="292" width="95" height="17.99" as="geometry" />
        </mxCell>
        <mxCell id="nBgyzqws7G7qOZCPQtSL-547" value="&lt;font style=&quot;font-size: 13px;&quot; face=&quot;Times New Roman&quot;&gt;Layer 4: RL&lt;/font&gt;" style="rounded=0;whiteSpace=wrap;html=1;" vertex="1" parent="1">
          <mxGeometry x="342" y="382" width="90" height="18" as="geometry" />
        </mxCell>
        <mxCell id="nBgyzqws7G7qOZCPQtSL-548" value="&lt;font style=&quot;font-size: 13px;&quot; face=&quot;Times New Roman&quot;&gt;Layer 5: Comm&lt;/font&gt;" style="rounded=0;whiteSpace=wrap;html=1;" vertex="1" parent="1">
          <mxGeometry x="345" y="474.01" width="90" height="17.99" as="geometry" />
        </mxCell>
      </root>
    </mxGraphModel>
  </diagram>
</mxfile>
